<svg width="24" height="24" viewBox="0 0 24 24" fill="none" xmlns="http://www.w3.org/2000/svg">
<path d="M10.7999 21.6001H4.79989C3.47441 21.6001 2.39989 20.5256 2.3999 19.2001L2.4 4.80013C2.4 3.47466 3.47452 2.40015 4.79999 2.40015H15.6003C16.9257 2.40015 18.0003 3.47466 18.0003 4.80015V9.60015M17.3999 17.3491V17.286M6.60028 7.20015H13.8003M6.60028 10.8001H13.8003M6.60028 14.4001H10.2003M21.5999 17.4001C21.5999 17.4001 20.6037 20.3398 17.3999 20.2885C14.1961 20.2371 13.1999 17.4001 13.1999 17.4001C13.1999 17.4001 14.1557 14.4091 17.3999 14.4091C20.6441 14.4091 21.5999 17.4001 21.5999 17.4001Z" stroke="#667085" stroke-width="2" stroke-linecap="round" stroke-linejoin="round"/>
</svg>
