<svg width="381" height="122" viewBox="0 0 381 122" fill="none" xmlns="http://www.w3.org/2000/svg">
<mask id="mask0_138_10813" style="mask-type:luminance" maskUnits="userSpaceOnUse" x="55" y="0" width="11" height="6">
<path d="M55.7448 0.515625H65.0781V5.33333H55.7448V0.515625Z" fill="white"/>
</mask>
<g mask="url(#mask0_138_10813)">
<path d="M58.2188 3.94788C59.4896 4.24996 61.1875 4.66142 62.4584 4.96871C62.9375 4.49475 63.5677 3.84892 63.9948 3.33329C62.8438 2.54683 61.6719 1.92183 60.4948 1.47913C59.4896 1.35933 58.1407 1.20308 57.1302 1.10413C56.9375 1.36454 56.6407 1.69267 56.3959 1.91142C56.9948 2.41663 57.6042 3.09892 58.2188 3.94788Z" fill="#689AC5"/>
</g>
<path d="M50.8229 4.92192C51.7917 5.24483 53.0834 5.67192 54.0573 5.97921C54.8594 5.43233 55.9167 4.69796 56.7031 4.13025C56.2344 3.26567 55.7709 2.56775 55.3281 2.04171C54.6354 1.9115 53.7136 1.73442 53.0261 1.599C52.4636 1.90108 51.7188 2.30212 51.1563 2.60421C51.0156 3.20837 50.9011 3.98442 50.8229 4.92192Z" fill="#274082"/>
<path d="M43.7136 6.05204C44.3177 6.41663 45.1406 6.88537 45.7761 7.20308C46.8438 6.58329 48.2604 5.76037 49.3281 5.14058C49.5521 4.18225 49.8073 3.38537 50.099 2.76037C49.7552 2.60412 49.2917 2.39579 48.974 2.19788C48.1146 2.55204 46.9688 3.03121 46.1146 3.401C45.2604 4.11975 44.4584 5.00517 43.7136 6.05204Z" fill="#69A2CD"/>
<path d="M37.349 7.26042C37.5417 7.67708 37.849 8.20312 38.1355 8.55729C39.3907 7.86979 41.073 6.96354 42.3334 6.29167C43.2136 5.22917 44.1511 4.31771 45.1407 3.57812C45.1094 3.35937 45.1302 3.04688 45.2344 2.85938C44.1459 3.27083 42.6927 3.82812 41.6094 4.26042C40.1198 5.09896 38.698 6.10417 37.349 7.26042Z" fill="#69A2CD"/>
<path d="M32.2032 8.47913C31.9896 8.901 31.7448 9.48954 31.6615 9.94788C33.0105 9.20829 34.8177 8.22913 36.1875 7.51558C37.6407 6.33329 39.1719 5.30204 40.7813 4.44267C41.1459 4.14059 41.6615 3.77079 42.073 3.54163C40.8334 3.99996 39.1823 4.63017 37.9584 5.12496C35.9532 6.08329 34.0313 7.20829 32.2032 8.47913Z" fill="#69A2CD"/>
<path d="M28.8073 9.59371C28.2136 10.0781 27.4323 10.7448 26.9011 11.2916C28.224 10.5052 29.9948 9.46871 31.3386 8.71871C33.25 7.42704 35.2552 6.28121 37.3438 5.29683C38.0521 4.94267 39.0104 4.49475 39.7448 4.19788C38.4792 4.69267 36.7969 5.37496 35.5521 5.91662C33.2031 6.98433 30.9531 8.21871 28.8073 9.59371Z" fill="#69A2CD"/>
<path d="M28.3906 9.79171C29.6354 9.00004 30.9115 8.25004 32.224 7.55212C30.3854 8.60942 27.9583 10.0625 26.1823 11.2292L25.875 11.4427C26.6302 10.9427 27.625 10.2709 28.3906 9.79171Z" fill="#69A2CD"/>
<path d="M81.8802 12.401C83.8438 13.0833 86.4688 13.9948 88.4323 14.6823C89.6875 13.6667 91.3594 12.3073 92.599 11.2708C91.6406 9.42708 90.6458 7.71354 89.6198 6.13542C87.8281 5.58854 85.4427 4.85417 83.651 4.3125C82.5833 5.17187 81.1563 6.30729 80.0781 7.14583C80.6875 8.76563 81.2865 10.5208 81.8802 12.401Z" fill="#3A6AB9"/>
<path d="M51.0729 20.6719C52.8438 21.3386 55.2084 22.224 56.9844 22.875C58.4844 21.7761 60.4844 20.3125 61.9792 19.2084C61.4844 17.3177 60.9844 15.5469 60.4896 13.9115C58.9011 13.3855 56.7865 12.6823 55.2031 12.1459C53.8802 13.073 52.1094 14.3021 50.7761 15.2188C50.849 16.9115 50.9479 18.7344 51.0729 20.6719Z" fill="#274082"/>
<path d="M37.8906 22.7709C39.3646 23.4427 41.3438 24.3282 42.8333 24.9688C44.474 23.8021 46.6615 22.2448 48.3073 21.0834C48.2708 19.1302 48.276 17.2917 48.3177 15.5834C47.0208 15.0573 45.2969 14.3542 44.0156 13.8021C42.5208 14.7865 40.5313 16.0938 39.0469 17.0834C38.599 18.8594 38.2135 20.7605 37.8906 22.7709Z" fill="#3881B6"/>
<path d="M26.099 25.0157C27.1875 25.7188 28.6563 26.6302 29.7761 27.2813C31.4375 26.0521 33.6615 24.4271 35.3386 23.2188C35.7448 21.1927 36.224 19.2761 36.7709 17.4844C35.8386 16.948 34.5938 16.2188 33.6927 15.6302C32.1407 16.6563 30.0834 18.0365 28.5469 19.0834C27.6355 20.948 26.8177 22.9271 26.099 25.0157Z" fill="#3A6AB9"/>
<path d="M16.5469 27.2708C17.1667 28.0208 18.026 28.9844 18.7188 29.6615C20.2708 28.3906 22.3542 26.7135 23.9323 25.4792C24.7292 23.375 25.625 21.375 26.625 19.5C26.0885 18.9323 25.3958 18.151 24.9479 17.5156C23.4635 18.5729 21.5 19.9948 20.0469 21.0938C18.7604 23.0417 17.5938 25.1094 16.5469 27.2708Z" fill="#689AC5"/>
<path d="M10.2552 29.3385C10.2865 30.1302 10.3907 31.1875 10.5834 31.9531C11.8698 30.6615 13.6094 28.9583 14.948 27.724C16.0469 25.5417 17.2761 23.4583 18.625 21.4948C18.5261 20.849 18.4532 19.974 18.5105 19.3281C17.2709 20.3854 15.6355 21.8177 14.448 22.9323C12.9115 24.9635 11.5105 27.1042 10.2552 29.3385Z" fill="#689AC5"/>
<path d="M6.60938 33.8229C7.43229 32.5625 8.56771 30.9062 9.47917 29.7083C10.7656 27.4583 12.1927 25.302 13.7604 23.2552C14.2031 22.5 14.8385 21.5052 15.3698 20.8073L14.5156 21.7708L12.5156 24.2395C8.98958 29.2135 8.92187 29.3073 7.39062 32.0989V32.1093C7.15625 32.6198 6.80208 33.2916 6.60938 33.8229Z" fill="#274082"/>
<path d="M70.5469 43.3541C72.7969 44.3125 75.7865 45.6041 78.0209 46.5885C79.7813 45.1979 82.125 43.3385 83.8802 41.9427C83.3125 39.3281 82.6719 36.802 81.974 34.375C79.7813 33.4843 76.8594 32.302 74.6563 31.4323C72.9896 32.7291 70.7604 34.4531 69.0886 35.7395C69.599 38.1875 70.0886 40.7291 70.5469 43.3541Z" fill="#69A2CD"/>
<path d="M53.4896 45.5989C55.6927 46.5104 58.625 47.7395 60.8229 48.6614C62.6927 47.1927 65.1823 45.2343 67.0573 43.7708C66.625 41.1458 66.1771 38.5989 65.7136 36.1458C63.5834 35.3125 60.7396 34.1979 58.6042 33.3698C56.8021 34.7291 54.4011 36.5416 52.6042 37.9114C52.875 40.3854 53.1667 42.9531 53.4896 45.5989Z" fill="#4186B9"/>
<path d="M22.4219 51C24.1563 51.8958 26.474 53.0729 28.224 53.9375C29.9167 52.3698 32.1875 50.2969 33.9167 48.7656C33.7605 46.0937 33.6823 43.4948 33.6928 40.9688C32.0313 40.1823 29.8178 39.1198 28.1719 38.2969C26.4792 39.7292 24.2396 41.6563 22.5834 43.1302C22.4167 45.6823 22.3594 48.3125 22.4219 51Z" fill="#69A2CD"/>
<path d="M10.5417 53.8073C11.8542 54.724 13.625 55.9271 14.9792 56.7917C16.3802 55.2032 18.2709 53.1094 19.7292 51.5782C19.6875 48.8855 19.7761 46.25 19.9844 43.6875C18.7136 42.8907 17.0313 41.8125 15.8021 40.9584C14.3698 42.4011 12.4844 44.3438 11.1094 45.8438C10.7656 48.4323 10.5781 51.0938 10.5417 53.8073Z" fill="#3881B6"/>
<path d="M2.71356 56.3802C3.4219 57.3646 4.41669 58.6407 5.22919 59.5365C6.18231 57.9584 7.50002 55.8802 8.5521 54.3646C8.60419 51.6511 8.81773 48.9844 9.18231 46.3802C8.40106 45.5625 7.38023 44.4323 6.70315 43.5209C5.71356 44.9375 4.42711 46.849 3.54169 48.3282C3.09377 50.9584 2.81252 53.6459 2.71356 56.3802Z" fill="#3881B6"/>
<mask id="mask1_138_10813" style="mask-type:luminance" maskUnits="userSpaceOnUse" x="0" y="45" width="4" height="18">
<path d="M0 45.3334H3.74479V62.6667H0V45.3334Z" fill="white"/>
</mask>
<g mask="url(#mask1_138_10813)">
<path d="M0.0520935 58.3386C0.109386 59.375 0.25001 60.7605 0.46876 61.7813C0.791676 60.2813 1.28126 58.2917 1.75522 56.8334C1.85939 54.099 2.15105 51.4011 2.61459 48.7657C2.43751 47.8282 2.26563 46.5677 2.25522 45.6146C1.84897 46.8646 1.32814 48.5365 1.04168 49.8177L1.03647 49.8438C0.770843 51.6511 0.385428 54.0677 0.208344 55.8855L0.0520935 58.3386Z" fill="#69A2CD"/>
</g>
<path d="M57.7084 74.9792C59.8229 75.8646 62.6406 77.0573 64.75 77.9584C66.5677 76.5313 69 74.6302 70.8281 73.2136C70.5886 70.5782 70.3125 67.8802 70.0052 65.1459C67.8021 64.1615 64.8594 62.8646 62.6511 61.8959C60.7813 63.4115 58.2917 65.4375 56.4323 66.9688C56.849 69.6927 57.2761 72.3646 57.7084 74.9792Z" fill="#69A2CD"/>
<path d="M80.9844 64.2344C83.099 65.0781 85.9219 66.2031 88.0365 67.0417C89.6667 65.5781 91.8542 63.6406 93.5157 62.2083C93.0313 59.6042 92.5677 56.9323 92.1198 54.2135C89.9271 53.2969 87.0105 52.0677 84.8177 51.1406C83.1094 52.6823 80.8438 54.7448 79.1615 56.3125C79.7136 59.0156 80.323 61.6615 80.9844 64.2344Z" fill="#274082"/>
<path d="M27.6719 80.2031C29.6511 81.0156 32.3021 82.0937 34.2917 82.8906C35.6198 81.4167 37.4115 79.474 38.7865 78.0417C38.0781 75.474 37.4323 72.8333 36.8542 70.1354C34.8073 69.2604 32.0781 68.0781 30.0417 67.1719C28.6146 68.7135 26.7292 70.7865 25.3542 72.3698C26.0261 75.0469 26.8021 77.6667 27.6719 80.2031Z" fill="#69A2CD"/>
<path d="M16.1823 82.9166C17.8958 83.7239 20.1823 84.7864 21.9115 85.552C22.8229 84.0937 24.0781 82.1666 25.0677 80.7604C24.1615 78.2291 23.3542 75.625 22.6615 72.9479C20.8906 72.0937 18.5365 70.9323 16.7917 70.026C15.7604 71.552 14.4167 73.6041 13.4688 75.1823C14.2396 77.8333 15.1458 80.4166 16.1823 82.9166Z" fill="#3881B6"/>
<path d="M8.61458 85.401C9.84896 86.25 11.5156 87.3489 12.8073 88.1198C13.1823 86.7031 13.7448 84.8281 14.2604 83.4583C13.1979 80.9635 12.2656 78.3906 11.4792 75.7395C10.125 74.8854 8.33854 73.7135 7.04167 72.776C6.5625 74.25 5.96875 76.2343 5.64062 77.7552C6.46875 80.3854 7.46875 82.9427 8.61458 85.401Z" fill="#69A2CD"/>
<path d="M6.04169 87.2969C6.68752 88.2031 7.60419 89.3906 8.35419 90.2135C8.08856 88.9167 7.79169 87.1667 7.68231 85.8438C6.52606 83.3854 5.51564 80.8385 4.6771 78.2083C3.91148 77.2865 2.9271 76.0208 2.27606 75.0156C2.42189 76.4323 2.67189 78.3177 2.97398 79.7135C3.82814 82.3281 4.85419 84.8646 6.04169 87.2969Z" fill="#69A2CD"/>
<path d="M74.6979 98.4636C76 99.198 77.7344 100.193 79.0156 100.979C80.5834 99.9115 82.6771 98.5 84.2552 97.4532C84.7761 95.3438 85.224 93.1302 85.6094 90.8282C84.1042 89.9167 82.0886 88.724 80.5573 87.8646C78.849 89.0886 76.5729 90.724 74.875 91.9636C74.8542 94.2292 74.7969 96.4011 74.6979 98.4636Z" fill="#3881B6"/>
<path d="M62.4635 100.073C64.0208 100.745 66.0938 101.651 67.6406 102.349C68.9948 101.266 70.8177 99.8282 72.1927 98.7657C72.1823 96.7136 72.1406 94.5573 72.0625 92.3021C70.3073 91.4792 67.9531 90.3907 66.1823 89.599C64.6615 90.8386 62.6354 92.5052 61.1406 93.7709C61.5833 95.974 62.026 98.0782 62.4635 100.073Z" fill="#274082"/>
<path d="M50.7083 101.943C52.4219 102.557 54.7083 103.38 56.4219 104.01C57.474 102.922 58.901 101.49 59.9948 100.443C59.4531 98.4636 58.9063 96.3698 58.3698 94.1823C56.4635 93.4323 53.9219 92.4323 52.0104 91.6927C50.7708 92.9323 49.1354 94.5938 47.9375 95.8698C48.8281 98.0052 49.7552 100.031 50.7083 101.943Z" fill="#3881B6"/>
<path d="M31.6719 105.958C33.3594 106.5 35.6146 107.208 37.3073 107.729C37.5417 106.703 37.9115 105.349 38.2604 104.365C36.7604 102.557 35.3229 100.625 33.9583 98.5885C32.1302 97.9375 29.6875 97.0625 27.8646 96.3906C27.4271 97.5729 26.8802 99.1615 26.5625 100.38C28.1719 102.359 29.8802 104.224 31.6719 105.958Z" fill="#3881B6"/>
<path d="M26.0625 107.802C27.4948 108.349 29.4115 109.047 30.8594 109.542C30.6146 108.604 30.3438 107.328 30.2448 106.359C28.3958 104.646 26.625 102.797 24.9583 100.833C23.3802 100.208 21.276 99.3594 19.7188 98.6875C19.8125 99.8229 20 101.344 20.2604 102.453C22.0833 104.365 24.0208 106.151 26.0625 107.802Z" fill="#69A2CD"/>
<path d="M24.1511 109.208C25.2032 109.781 26.625 110.516 27.7136 111.026C26.9688 110.193 26.0105 109.047 25.3698 108.13C23.3021 106.49 21.3386 104.714 19.4844 102.818C18.3438 102.172 16.8334 101.281 15.7396 100.562C16.4063 101.63 17.3386 103.036 18.1146 104.031C20.0105 105.885 22.0313 107.615 24.1511 109.208Z" fill="#69A2CD"/>
<path d="M69.8125 110.292C70.474 110.625 71.349 111.083 71.9792 111.464C72.5678 110.932 73.3646 110.234 73.9844 109.734C74.2084 108.641 74.4011 107.385 74.5573 105.99C73.625 105.437 72.3698 104.724 71.4167 104.219C70.5782 104.974 69.474 105.99 68.6771 106.781C69.0677 108.099 69.448 109.276 69.8125 110.292Z" fill="#274082"/>
<path d="M61.0157 115.344C62.198 115.573 63.7709 115.885 64.948 116.12C64.7709 115.698 64.5886 115.109 64.5521 114.656C63.3334 113.781 62.1302 112.74 60.9427 111.547C59.5313 111.135 57.6511 110.589 56.2396 110.188C56.1042 110.88 55.9636 111.813 55.9584 112.51C57.6146 113.615 59.3021 114.563 61.0157 115.344Z" fill="#69A2CD"/>
<path d="M51.2657 119.964C52.6146 120.109 54.4115 120.297 55.7605 120.417C54.9375 120.135 53.849 119.724 53.0625 119.344C50.7448 118.708 48.474 117.901 46.25 116.937C44.7709 116.63 42.7917 116.214 41.3177 115.885C42.0052 116.505 42.9584 117.286 43.7188 117.807C46.1771 118.693 48.698 119.417 51.2657 119.964Z" fill="#3881B6"/>
<path d="M50.448 120.562C51.7032 120.698 53.3698 120.859 54.625 120.953C53.5209 120.729 52.0573 120.401 50.974 120.104C48.3594 119.573 45.8021 118.87 43.3021 118.005C42.0052 117.714 40.2761 117.313 38.9896 116.984C40.0469 117.516 41.474 118.198 42.5625 118.656C45.1302 119.464 47.7657 120.104 50.448 120.562Z" fill="#274082"/>
<mask id="mask2_138_10813" style="mask-type:luminance" maskUnits="userSpaceOnUse" x="54" y="121" width="4" height="1">
<path d="M54.4115 121.333H57.0782V121.516H54.4115V121.333Z" fill="white"/>
</mask>
<g mask="url(#mask2_138_10813)">
<path d="M55.9375 121.526L55.2136 121.464L55.7188 121.505L55.9375 121.526Z" fill="#69A2CD"/>
</g>
<path d="M66.7812 9.33858C68.5312 9.849 70.8646 10.5313 72.6146 11.0521C73.3281 10.3386 74.2604 9.37504 74.9167 8.60942C73.5625 7.2865 72.1719 6.11462 70.7396 5.099C69.2188 4.74483 67.1875 4.27608 65.6615 3.94275C65.1823 4.48963 64.5313 5.19796 64.0156 5.70317C64.9479 6.76046 65.875 7.974 66.7812 9.33858Z" fill="#3881B6"/>
<path d="M56 10.6042C57.5417 11.1094 59.599 11.7709 61.1407 12.2709C62.1875 11.4688 63.573 10.3907 64.599 9.56775C63.8125 8.19275 63.0157 6.96358 62.2136 5.89587C60.9011 5.55733 59.1615 5.10421 57.849 4.77087C57.0313 5.37504 55.9323 6.16671 55.099 6.75525C55.3855 7.88546 55.6823 9.17712 56 10.6042Z" fill="#274082"/>
<path d="M45.3073 12.1614C46.5521 12.677 48.2136 13.3489 49.4688 13.8385C50.7656 12.9583 52.4896 11.7864 53.7813 10.9062C53.5886 9.45829 53.4167 8.151 53.2656 6.99996C52.2552 6.66142 50.9115 6.19788 49.9115 5.8385C48.8125 6.49996 47.349 7.38017 46.2552 8.04163C45.8959 9.26558 45.5781 10.6458 45.3073 12.1614Z" fill="#69A2CD"/>
<path d="M35.375 13.8855C36.25 14.4375 37.4271 15.1459 38.3281 15.6459C39.7865 14.698 41.7292 13.4427 43.1927 12.5052C43.5781 10.9688 44.0156 9.57296 44.5052 8.32296C43.8385 7.96358 42.9635 7.474 42.3281 7.06775C41.0417 7.78129 39.3229 8.73963 38.0365 9.46879C37.0781 10.7969 36.1927 12.2761 35.375 13.8855Z" fill="#3881B6"/>
<path d="M26.8802 15.6771C27.3178 16.2708 27.9375 17.0365 28.4532 17.5677C29.9584 16.5625 31.974 15.2344 33.5 14.25C34.4167 12.625 35.4167 11.125 36.4844 9.77083C36.1875 9.375 35.8073 8.82813 35.6094 8.375C34.224 9.13542 32.3855 10.1615 31.0105 10.9479C29.5417 12.3906 28.1615 13.9688 26.8802 15.6771Z" fill="#3A6AB9"/>
<path d="M20.5104 17.4167C20.4636 18.0365 20.4636 18.8698 20.5677 19.4792C22 18.4323 23.9219 17.0521 25.3802 16.0417C26.7448 14.3125 28.2136 12.7136 29.7708 11.25C29.8594 10.7657 30.0313 10.1198 30.2448 9.67712C28.8854 10.474 27.0781 11.5521 25.7396 12.3855C23.8854 13.9323 22.1354 15.6146 20.5104 17.4167Z" fill="#3881B6"/>
<path d="M17.1979 18.8645C16.6719 19.5416 16 20.4687 15.5729 21.2083C16.7448 20.1458 18.3334 18.7552 19.5573 17.7448C21.2396 15.927 23.0417 14.2239 24.9531 12.6614C25.4948 12.0885 26.2448 11.3541 26.8438 10.8541C25.6771 11.651 24.1302 12.7343 23.0052 13.5833C20.9479 15.2187 19.0104 16.9843 17.1979 18.8645Z" fill="#3A6AB9"/>
<path d="M75.5625 29.2031C77.7448 30.0573 80.6511 31.2031 82.823 32.0833C84.2292 30.9167 86.0834 29.3438 87.4532 28.1354C86.5209 25.8854 85.5105 23.75 84.4427 21.7292C82.3959 20.9583 79.6667 19.9479 77.6042 19.2188C76.3438 20.2813 74.6459 21.6823 73.3646 22.724C74.1302 24.7656 74.8698 26.9323 75.5625 29.2031Z" fill="#3881B6"/>
<mask id="mask3_138_10813" style="mask-type:luminance" maskUnits="userSpaceOnUse" x="97" y="0" width="17" height="15">
<path d="M97.0781 0.515625H113.078V14.6667H97.0781V0.515625Z" fill="white"/>
</mask>
<g mask="url(#mask3_138_10813)">
<path d="M99.2969 10.8959C101.417 11.7084 104.24 12.7917 106.354 13.6094C108.01 12.3438 110.219 10.6511 111.865 9.37504C111.234 7.099 110.573 4.92712 109.885 2.87504C107.896 2.16671 105.24 1.224 103.25 0.520874C101.729 1.65629 99.7031 3.1615 98.1719 4.2865C98.5417 6.38025 98.9167 8.58858 99.2969 10.8959Z" fill="#274082"/>
</g>
<path d="M44.1823 33.3282C46.1146 34.1198 48.6927 35.1771 50.6302 35.9584C52.4114 34.6146 54.7864 32.8282 56.5677 31.4948C56.2552 29.1771 55.9531 26.9636 55.6667 24.8594C53.8698 24.1771 51.4687 23.2709 49.6771 22.5834C48.0104 23.7761 45.7864 25.3698 44.125 26.5677C44.0937 28.7188 44.1146 30.974 44.1823 33.3282Z" fill="#69A2CD"/>
<path d="M29.6667 35.8541C31.3021 36.651 33.4896 37.7031 35.1354 38.4687C36.9167 37.0677 39.2917 35.2083 41.0886 33.8281C41.0834 31.4687 41.1354 29.1979 41.2448 27.0312C39.7344 26.3645 37.7292 25.4635 36.2344 24.7604C34.5365 26 32.2813 27.6614 30.599 28.9166C30.2031 31.1354 29.8906 33.4479 29.6667 35.8541Z" fill="#4186B9"/>
<path d="M17.2552 38.4688C18.4792 39.2969 20.1355 40.3698 21.3959 41.1406C23.0417 39.6979 25.25 37.7917 26.9271 36.3854C27.2032 33.974 27.5782 31.6458 28.0469 29.4167C26.9115 28.7344 25.4115 27.8125 24.3125 27.0781C22.7188 28.349 20.599 30.0521 19.0313 31.3594C18.3177 33.6406 17.724 36.0156 17.2552 38.4688Z" fill="#274082"/>
<path d="M7.9375 41.0156C8.64583 41.8854 9.63542 43.0156 10.4271 43.8073C11.7969 42.3437 13.6406 40.4115 15.0625 39C15.5781 36.5365 16.224 34.151 16.9948 31.8542C16.3021 31.1458 15.4063 30.1719 14.7969 29.3906C13.4427 30.6719 11.6563 32.3958 10.3542 33.7292C9.40104 36.0729 8.59375 38.5052 7.9375 41.0156Z" fill="#274082"/>
<path d="M3.10419 43.1302C3.14585 44.0573 3.27606 45.2969 3.47919 46.2084C4.3594 44.7657 5.57294 42.8698 6.5521 41.4948C7.2344 38.9792 8.07294 36.5365 9.06252 34.1771C8.90627 33.375 8.76044 32.2865 8.77085 31.474C7.8594 32.7136 6.67189 34.3959 5.84898 35.698C4.77085 38.099 3.85419 40.5782 3.10419 43.1302Z" fill="#69A2CD"/>
<path d="M103.245 45.2813C105.359 46.3333 108.177 47.7396 110.271 48.8229C112.078 47.4271 114.474 45.5521 116.245 44.1198C116.109 42.7135 115.943 41.3073 115.75 39.901C115.552 38.4896 115.333 37.0937 115.089 35.724C112.969 34.6354 110.13 33.2135 107.979 32.1875C106.214 33.599 103.859 35.4792 102.089 36.8854C102.313 38.2604 102.521 39.6563 102.714 41.0677C102.911 42.4792 103.083 43.8854 103.245 45.2813Z" fill="#3A6AB9"/>
<path d="M46.9011 61.776C49.1042 62.7135 52.0365 63.9635 54.2396 64.8958C56.099 63.3542 58.5834 61.3021 60.4531 59.7708C60.2604 58.375 60.0677 56.9688 59.8698 55.5625C59.6771 54.1458 59.4844 52.7552 59.2969 51.375C57.0938 50.4375 54.1511 49.1927 51.9479 48.2656C50.0781 49.7865 47.5938 51.8333 45.7448 53.3802C45.9115 54.7656 46.0938 56.1615 46.2917 57.5729C46.4844 58.9844 46.6875 60.3854 46.9011 61.776Z" fill="#3A6AB9"/>
<path d="M31.0313 64.5364C33.0781 65.4531 35.8125 66.6614 37.8698 67.552C39.5521 65.9687 41.8125 63.875 43.5209 62.3229C43.3021 60.9323 43.0938 59.5312 42.9011 58.1198C42.7031 56.7083 42.5261 55.3125 42.3646 53.927C40.3281 53.0312 37.6094 51.8281 35.5781 50.9166C33.849 52.4687 31.5625 54.552 29.8698 56.1406C30.0156 57.526 30.1823 58.927 30.375 60.3385C30.5729 61.75 30.7917 63.151 31.0313 64.5364Z" fill="#69A2CD"/>
<path d="M17.4531 67.4011C19.2135 68.3125 21.5729 69.5105 23.3542 70.375C24.7396 68.7813 26.599 66.6719 28.0312 65.1198C27.7865 63.7344 27.5677 62.3334 27.3698 60.9271C27.1771 59.5157 27.0104 58.1146 26.875 56.724C25.125 55.8438 22.7969 54.6563 21.0625 53.7396C19.6094 55.2969 17.6927 57.3959 16.2969 59.0052C16.4167 60.3959 16.5729 61.7969 16.7656 63.2084C16.9635 64.6198 17.1927 66.0157 17.4531 67.4011Z" fill="#689AC5"/>
<path d="M7.26562 70.1823C8.59375 71.1145 10.3854 72.3333 11.7656 73.1875C12.7188 71.6041 14.0208 69.5156 15.0573 67.9843C14.7917 66.5989 14.5573 65.2031 14.3646 63.7916C14.1719 62.3802 14.0156 60.9791 13.901 59.5833C12.5573 58.7031 10.776 57.5 9.47396 56.5573C8.42187 58.0989 7.05729 60.177 6.10938 61.7864C6.21354 63.1823 6.35938 64.5885 6.55729 66C6.75 67.4062 6.98958 68.802 7.26562 70.1823Z" fill="#689AC5"/>
<mask id="mask4_138_10813" style="mask-type:luminance" maskUnits="userSpaceOnUse" x="0" y="58" width="7" height="18">
<path d="M0 58.6666H6.41146V76H0V58.6666Z" fill="white"/>
</mask>
<g mask="url(#mask4_138_10813)">
<path d="M1.97397 72.4948C2.66147 73.5 3.62501 74.8073 4.42709 75.724C4.76043 74.2031 5.26563 72.1875 5.75001 70.7083C5.46876 69.3281 5.22918 67.9375 5.03647 66.526C4.83855 65.1146 4.69272 63.7083 4.58855 62.3125C3.8073 61.3802 2.80209 60.1094 2.13543 59.0938C1.67709 60.5781 1.12501 62.5729 0.817719 64.099C0.911468 65.5 1.0573 66.9063 1.25001 68.3177C1.44793 69.7292 1.68751 71.1198 1.97397 72.4948Z" fill="#274082"/>
</g>
<mask id="mask5_138_10813" style="mask-type:luminance" maskUnits="userSpaceOnUse" x="105" y="64" width="13" height="16">
<path d="M105.078 64H118V80H105.078V64Z" fill="white"/>
</mask>
<g mask="url(#mask5_138_10813)">
<path d="M105.786 76.8177C107.344 77.7083 109.406 78.9167 110.932 79.8594C112.714 78.6563 115.089 77.0417 116.865 75.8229C117.318 73.3802 117.682 70.8542 117.948 68.2708C116.276 67.2135 114.026 65.8333 112.307 64.8438C110.432 66.1927 107.932 67.9896 106.063 69.3385C106.031 71.901 105.938 74.3958 105.786 76.8177Z" fill="#69A2CD"/>
</g>
<path d="M89.0312 82.2395C90.8333 83.0573 93.2292 84.1666 95.0104 85.0208C96.7292 83.7552 99.0156 82.0729 100.745 80.8229C100.818 78.4114 100.839 75.9218 100.802 73.3698C98.849 72.4114 96.2396 71.151 94.276 70.2291C92.4583 71.6198 90.0417 73.4791 88.2344 74.8854C88.5208 77.4114 88.7865 79.8645 89.0312 82.2395Z" fill="#689AC5"/>
<path d="M52.8125 89.6302C54.7552 90.3906 57.3334 91.4114 59.2709 92.1875C60.7865 90.8958 62.8177 89.1823 64.3542 87.9166C64.0261 85.5573 63.6875 83.1093 63.3386 80.5937C61.25 79.7187 58.4688 78.5468 56.3802 77.6823C54.7396 79.0937 52.5625 80.9895 50.9479 82.427C51.5469 84.9114 52.1667 87.3125 52.8125 89.6302Z" fill="#3A6AB9"/>
<path d="M39.2917 91.9791C41.25 92.6979 43.8646 93.651 45.8281 94.3698C47.0417 93.0677 48.6771 91.3541 49.9323 90.0937C49.2084 87.7916 48.5156 85.401 47.8542 82.9323C45.7656 82.1145 42.974 81.0208 40.8854 80.1979C39.5313 81.6041 37.7396 83.5 36.4323 84.9531C37.3229 87.3854 38.2761 89.7291 39.2917 91.9791Z" fill="#3881B6"/>
<path d="M27.724 94.4218C29.573 95.1093 32.0469 96.0156 33.9063 96.6875C34.724 95.401 35.8438 93.7135 36.7344 92.4791C35.6511 90.2395 34.6355 87.9062 33.6927 85.4895C31.724 84.7083 29.1042 83.6666 27.1459 82.8698C26.1771 84.2604 24.9115 86.1302 24.0209 87.5729C25.1563 89.9479 26.3907 92.2343 27.724 94.4218Z" fill="#3881B6"/>
<path d="M14.5365 98.7604C15.6667 99.4843 17.1875 100.427 18.3594 101.083C18.1094 99.9427 17.8386 98.401 17.75 97.2343C16.1459 95.1302 14.6667 92.9114 13.3177 90.5937C12.0677 89.8281 10.4219 88.7812 9.22919 87.9323C9.35419 89.2291 9.58335 90.9583 9.86981 92.2291C11.2865 94.5156 12.8438 96.6927 14.5365 98.7604Z" fill="#69A2CD"/>
<path d="M16.6146 102.641C15.8385 101.609 14.8333 100.198 14.1667 99.0937C12.4635 97.0364 10.8958 94.8645 9.46875 92.5885C8.75521 91.7656 7.82812 90.6354 7.21875 89.7291L7.70833 90.6562L7.84375 90.901C11.1615 96.25 11.1615 96.25 13.1458 98.7395L15.5052 101.526L16.6146 102.641Z" fill="#3881B6"/>
<path d="M45.1302 113.406C46.6667 113.797 48.7188 114.313 50.2604 114.693C50.3073 113.948 50.4323 112.953 50.6042 112.229C49.1563 110.865 47.7448 109.354 46.375 107.714C44.6511 107.177 42.349 106.464 40.625 105.922C40.3177 106.875 39.9479 108.156 39.7604 109.141C41.4896 110.703 43.2813 112.13 45.1302 113.406Z" fill="#69A2CD"/>
<path d="M39.8542 114.849C41.3646 115.203 43.3802 115.661 44.8907 116C44.5417 115.339 44.1146 114.427 43.8907 113.708C41.9532 112.453 40.073 111.047 38.2605 109.505C36.599 109.01 34.3907 108.349 32.7396 107.844C32.8698 108.766 33.1042 109.99 33.3855 110.88C35.4636 112.344 37.625 113.672 39.8542 114.849Z" fill="#689AC5"/>
<path d="M37.1198 116.047C38.4271 116.401 40.1771 116.854 41.4948 117.172C40.7344 116.594 39.75 115.792 39.0729 115.12C36.7865 113.964 34.5677 112.656 32.4375 111.208C31.0209 110.734 29.1406 110.089 27.7448 109.568C28.4011 110.427 29.3229 111.547 30.0729 112.328C32.3386 113.714 34.6875 114.958 37.1198 116.047Z" fill="#69A2CD"/>
<path d="M37.0521 116.891C38.0833 117.266 39.4635 117.734 40.5104 118.052C39.4115 117.542 37.9531 116.833 36.8906 116.25C34.4479 115.177 32.0781 113.948 29.8021 112.568C28.7396 112.083 27.3281 111.411 26.2969 110.859C27.3125 111.589 28.6771 112.536 29.7344 113.198L31.3073 114.099C33.1667 115.13 35.0833 116.062 37.0521 116.891Z" fill="#689AC5"/>
<path d="M143.977 20.0117C143.279 20.0117 142.732 20.2513 142.331 20.72C141.94 21.1783 141.748 21.8138 141.748 22.6158C141.748 23.4388 141.935 24.0742 142.31 24.5325C142.695 24.9804 143.253 25.1992 143.977 25.1992C144.404 25.1992 144.904 25.1158 145.477 24.9492V25.595C145.044 25.7617 144.503 25.845 143.852 25.845C142.935 25.845 142.216 25.569 141.706 25.0117C141.206 24.444 140.956 23.6367 140.956 22.595C140.956 21.944 141.07 21.3763 141.31 20.8867C141.56 20.4023 141.914 20.0273 142.373 19.7617C142.831 19.5013 143.373 19.3658 143.998 19.3658C144.649 19.3658 145.227 19.4856 145.727 19.72L145.414 20.3658C144.94 20.1315 144.461 20.0117 143.977 20.0117Z" fill="#00367D"/>
<path d="M152.706 25.7616H149.206V19.4491H152.706V20.1158H149.935V22.1366H152.539V22.7824H149.935V25.1158H152.706V25.7616Z" fill="#00367D"/>
<path d="M161.38 25.7616H160.546L157.088 20.4699H157.067C157.109 21.0949 157.13 21.6678 157.13 22.1783V25.7616H156.463V19.4491H157.275L160.713 24.7199H160.755C160.755 24.6522 160.739 24.4074 160.713 23.9908C160.697 23.5637 160.692 23.2564 160.692 23.0741V19.4491H161.38V25.7616Z" fill="#00367D"/>
<path d="M167.403 25.7616H166.674V20.1158H164.674V19.4491H169.403V20.1158H167.403V25.7616Z" fill="#00367D"/>
<path d="M176.197 25.7616H172.697V19.4491H176.197V20.1158H173.426V22.1366H176.03V22.7824H173.426V25.1158H176.197V25.7616Z" fill="#00367D"/>
<path d="M180.683 23.1366V25.7616H179.954V19.4491H181.683C182.444 19.4491 183.016 19.6053 183.391 19.9074C183.766 20.1991 183.954 20.647 183.954 21.2408C183.954 22.0741 183.527 22.6366 182.683 22.9283L184.391 25.7616H183.516L181.996 23.1366H180.683ZM180.683 22.5116H181.683C182.194 22.5116 182.569 22.4074 182.808 22.1991C183.058 21.9908 183.183 21.6887 183.183 21.2824C183.183 20.8658 183.058 20.5689 182.808 20.3866C182.569 20.1939 182.183 20.0949 181.641 20.0949H180.683V22.5116Z" fill="#00367D"/>
<path d="M193.129 25.7616H192.4V19.4491H195.9V20.1158H193.129V22.4074H195.734V23.0741H193.129V25.7616Z" fill="#00367D"/>
<path d="M204.763 22.595C204.763 23.6106 204.502 24.4075 203.992 24.9908C203.492 25.5638 202.783 25.845 201.867 25.845C200.95 25.845 200.231 25.5638 199.721 24.9908C199.221 24.4231 198.971 23.6263 198.971 22.595C198.971 21.569 199.221 20.7773 199.721 20.22C200.231 19.6523 200.955 19.3658 201.888 19.3658C202.789 19.3658 203.492 19.6523 203.992 20.22C204.502 20.7929 204.763 21.5846 204.763 22.595ZM199.742 22.595C199.742 23.4596 199.919 24.1106 200.283 24.5533C200.658 24.9856 201.184 25.1992 201.867 25.1992C202.575 25.1992 203.101 24.9856 203.45 24.5533C203.809 24.1106 203.992 23.4596 203.992 22.595C203.992 21.7513 203.809 21.1106 203.45 20.6783C203.101 20.2356 202.58 20.0117 201.888 20.0117C201.19 20.0117 200.658 20.2356 200.283 20.6783C199.919 21.1263 199.742 21.7617 199.742 22.595Z" fill="#00367D"/>
<path d="M209.256 23.1366V25.7616H208.526V19.4491H210.256C211.016 19.4491 211.589 19.6053 211.964 19.9074C212.339 20.1991 212.526 20.647 212.526 21.2408C212.526 22.0741 212.099 22.6366 211.256 22.9283L212.964 25.7616H212.089L210.568 23.1366H209.256ZM209.256 22.5116H210.256C210.766 22.5116 211.141 22.4074 211.381 22.1991C211.631 21.9908 211.756 21.6887 211.756 21.2824C211.756 20.8658 211.631 20.5689 211.381 20.3866C211.141 20.1939 210.756 20.0949 210.214 20.0949H209.256V22.5116Z" fill="#00367D"/>
<path d="M221.702 23.1366V25.7616H220.973V19.4491H222.702C223.462 19.4491 224.035 19.6053 224.41 19.9074C224.785 20.1991 224.973 20.647 224.973 21.2408C224.973 22.0741 224.546 22.6366 223.702 22.9283L225.41 25.7616H224.535L223.014 23.1366H221.702ZM221.702 22.5116H222.702C223.212 22.5116 223.587 22.4074 223.827 22.1991C224.077 21.9908 224.202 21.6887 224.202 21.2824C224.202 20.8658 224.077 20.5689 223.827 20.3866C223.587 20.1939 223.202 20.0949 222.66 20.0949H221.702V22.5116Z" fill="#00367D"/>
<path d="M232.277 25.7616H228.777V19.4491H232.277V20.1158H229.506V22.1366H232.111V22.7824H229.506V25.1158H232.277V25.7616Z" fill="#00367D"/>
<path d="M238.722 20.0117C238.024 20.0117 237.477 20.2513 237.076 20.72C236.685 21.1783 236.493 21.8138 236.493 22.6158C236.493 23.4388 236.68 24.0742 237.055 24.5325C237.441 24.9804 237.998 25.1992 238.722 25.1992C239.149 25.1992 239.649 25.1158 240.222 24.9492V25.595C239.79 25.7617 239.248 25.845 238.597 25.845C237.68 25.845 236.962 25.569 236.451 25.0117C235.951 24.444 235.701 23.6367 235.701 22.595C235.701 21.944 235.816 21.3763 236.055 20.8867C236.305 20.4023 236.659 20.0273 237.118 19.7617C237.576 19.5013 238.118 19.3658 238.743 19.3658C239.394 19.3658 239.972 19.4856 240.472 19.72L240.159 20.3658C239.685 20.1315 239.206 20.0117 238.722 20.0117Z" fill="#00367D"/>
<path d="M249.409 22.595C249.409 23.6106 249.149 24.4075 248.638 24.9908C248.138 25.5638 247.43 25.845 246.513 25.845C245.597 25.845 244.878 25.5638 244.368 24.9908C243.868 24.4231 243.618 23.6263 243.618 22.595C243.618 21.569 243.868 20.7773 244.368 20.22C244.878 19.6523 245.602 19.3658 246.534 19.3658C247.435 19.3658 248.138 19.6523 248.638 20.22C249.149 20.7929 249.409 21.5846 249.409 22.595ZM244.388 22.595C244.388 23.4596 244.566 24.1106 244.93 24.5533C245.305 24.9856 245.831 25.1992 246.513 25.1992C247.222 25.1992 247.748 24.9856 248.097 24.5533C248.456 24.1106 248.638 23.4596 248.638 22.595C248.638 21.7513 248.456 21.1106 248.097 20.6783C247.748 20.2356 247.227 20.0117 246.534 20.0117C245.836 20.0117 245.305 20.2356 244.93 20.6783C244.566 21.1263 244.388 21.7617 244.388 22.595Z" fill="#00367D"/>
<path d="M255.944 22.4492H258.09V25.5325C257.756 25.6315 257.413 25.7096 257.069 25.7617C256.72 25.8138 256.319 25.845 255.861 25.845C254.902 25.845 254.157 25.5638 253.631 24.9908C253.1 24.4231 252.84 23.6315 252.84 22.6158C252.84 21.9492 252.97 21.3763 253.236 20.8867C253.496 20.3867 253.871 20.0117 254.361 19.7617C254.861 19.5013 255.444 19.3658 256.111 19.3658C256.777 19.3658 257.402 19.4908 257.986 19.7408L257.694 20.3867C257.121 20.1367 256.579 20.0117 256.069 20.0117C255.288 20.0117 254.684 20.2408 254.256 20.6992C253.824 21.1575 253.611 21.7981 253.611 22.6158C253.611 23.4648 253.819 24.1106 254.236 24.5533C254.652 24.9856 255.262 25.1992 256.069 25.1992C256.496 25.1992 256.923 25.1523 257.34 25.0533V23.1158H255.944V22.4492Z" fill="#00367D"/>
<path d="M266.864 25.7616H266.03L262.572 20.4699H262.551C262.593 21.0949 262.614 21.6678 262.614 22.1783V25.7616H261.947V19.4491H262.759L266.197 24.7199H266.239C266.239 24.6522 266.223 24.4074 266.197 23.9908C266.181 23.5637 266.176 23.2564 266.176 23.0741V19.4491H266.864V25.7616Z" fill="#00367D"/>
<path d="M270.949 25.7616V19.4491H271.678V25.7616H270.949Z" fill="#00367D"/>
<path d="M277.697 25.7616H276.968V20.1158H274.968V19.4491H279.697V20.1158H277.697V25.7616Z" fill="#00367D"/>
<path d="M282.991 25.7616V19.4491H283.72V25.7616H282.991Z" fill="#00367D"/>
<path d="M293.259 22.595C293.259 23.6106 292.998 24.4075 292.488 24.9908C291.988 25.5638 291.28 25.845 290.363 25.845C289.446 25.845 288.728 25.5638 288.217 24.9908C287.717 24.4231 287.467 23.6263 287.467 22.595C287.467 21.569 287.717 20.7773 288.217 20.22C288.728 19.6523 289.452 19.3658 290.384 19.3658C291.285 19.3658 291.988 19.6523 292.488 20.22C292.998 20.7929 293.259 21.5846 293.259 22.595ZM288.238 22.595C288.238 23.4596 288.415 24.1106 288.78 24.5533C289.155 24.9856 289.681 25.1992 290.363 25.1992C291.071 25.1992 291.597 24.9856 291.946 24.5533C292.306 24.1106 292.488 23.4596 292.488 22.595C292.488 21.7513 292.306 21.1106 291.946 20.6783C291.597 20.2356 291.077 20.0117 290.384 20.0117C289.686 20.0117 289.155 20.2356 288.78 20.6783C288.415 21.1263 288.238 21.7617 288.238 22.595Z" fill="#00367D"/>
<path d="M301.939 25.7616H301.106L297.648 20.4699H297.627C297.668 21.0949 297.689 21.6678 297.689 22.1783V25.7616H297.023V19.4491H297.835L301.273 24.7199H301.314C301.314 24.6522 301.299 24.4074 301.273 23.9908C301.257 23.5637 301.252 23.2564 301.252 23.0741V19.4491H301.939V25.7616Z" fill="#00367D"/>
<path d="M316.125 22.595C316.125 23.6106 315.865 24.4075 315.354 24.9908C314.854 25.5638 314.146 25.845 313.229 25.845C312.313 25.845 311.594 25.5638 311.083 24.9908C310.583 24.4231 310.333 23.6263 310.333 22.595C310.333 21.569 310.583 20.7773 311.083 20.22C311.594 19.6523 312.318 19.3658 313.25 19.3658C314.151 19.3658 314.854 19.6523 315.354 20.22C315.865 20.7929 316.125 21.5846 316.125 22.595ZM311.104 22.595C311.104 23.4596 311.281 24.1106 311.646 24.5533C312.021 24.9856 312.547 25.1992 313.229 25.1992C313.938 25.1992 314.464 24.9856 314.813 24.5533C315.172 24.1106 315.354 23.4596 315.354 22.595C315.354 21.7513 315.172 21.1106 314.813 20.6783C314.464 20.2356 313.943 20.0117 313.25 20.0117C312.552 20.0117 312.021 20.2356 311.646 20.6783C311.281 21.1263 311.104 21.7617 311.104 22.595Z" fill="#00367D"/>
<path d="M320.618 25.7616H319.889V19.4491H323.389V20.1158H320.618V22.4074H323.222V23.0741H320.618V25.7616Z" fill="#00367D"/>
<path d="M145.289 32.6695C145.289 33.2945 145.065 33.7841 144.623 34.1278C144.19 34.4768 143.565 34.6486 142.748 34.6486H142.018V37.1278H141.289V30.8153H142.914C144.498 30.8153 145.289 31.4351 145.289 32.6695ZM142.018 34.0236H142.664C143.315 34.0236 143.789 33.9195 144.081 33.7111C144.373 33.5028 144.518 33.1643 144.518 32.6903C144.518 32.2736 144.378 31.9716 144.102 31.7736C143.836 31.5653 143.414 31.4611 142.831 31.4611H142.018V34.0236Z" fill="#00367D"/>
<path d="M149.681 34.5028V37.1278H148.951V30.8153H150.681C151.441 30.8153 152.014 30.9716 152.389 31.2736C152.764 31.5653 152.951 32.0132 152.951 32.607C152.951 33.4403 152.524 34.0028 151.681 34.2945L153.389 37.1278H152.514L150.993 34.5028H149.681ZM149.681 33.8778H150.681C151.191 33.8778 151.566 33.7736 151.806 33.5653C152.056 33.357 152.181 33.0549 152.181 32.6486C152.181 32.232 152.056 31.9351 151.806 31.7528C151.566 31.5601 151.181 31.4611 150.639 31.4611H149.681V33.8778Z" fill="#00367D"/>
<path d="M162.214 33.9611C162.214 34.9767 161.954 35.7736 161.444 36.3569C160.944 36.9298 160.235 37.2111 159.319 37.2111C158.402 37.2111 157.683 36.9298 157.173 36.3569C156.673 35.7892 156.423 34.9924 156.423 33.9611C156.423 32.9351 156.673 32.1434 157.173 31.5861C157.683 31.0184 158.407 30.7319 159.339 30.7319C160.24 30.7319 160.944 31.0184 161.444 31.5861C161.954 32.159 162.214 32.9507 162.214 33.9611ZM157.194 33.9611C157.194 34.8257 157.371 35.4767 157.735 35.9194C158.11 36.3517 158.636 36.5653 159.319 36.5653C160.027 36.5653 160.553 36.3517 160.902 35.9194C161.261 35.4767 161.444 34.8257 161.444 33.9611C161.444 33.1174 161.261 32.4767 160.902 32.0444C160.553 31.6017 160.032 31.3778 159.339 31.3778C158.641 31.3778 158.11 31.6017 157.735 32.0444C157.371 32.4924 157.194 33.1278 157.194 33.9611Z" fill="#00367D"/>
<path d="M166.707 37.1278H165.978V30.8153H169.478V31.482H166.707V33.7736H169.311V34.4403H166.707V37.1278Z" fill="#00367D"/>
<path d="M176.382 37.1278H172.882V30.8153H176.382V31.482H173.611V33.5028H176.215V34.1486H173.611V36.482H176.382V37.1278Z" fill="#00367D"/>
<path d="M183.681 35.4403C183.681 35.9976 183.478 36.4351 183.077 36.7528C182.671 37.0601 182.129 37.2111 181.452 37.2111C180.702 37.2111 180.124 37.1174 179.723 36.9194V36.2111C179.983 36.3257 180.264 36.4142 180.556 36.4819C180.858 36.5392 181.165 36.5653 181.473 36.5653C181.957 36.5653 182.327 36.4767 182.577 36.2944C182.827 36.1174 182.952 35.8569 182.952 35.5236C182.952 35.3048 182.9 35.1226 182.806 34.9819C182.723 34.8465 182.577 34.7215 182.368 34.6069C182.171 34.4819 181.858 34.3465 181.431 34.1903C180.848 33.9819 180.431 33.7424 180.181 33.4611C179.931 33.1694 179.806 32.7892 179.806 32.3153C179.806 31.8309 179.983 31.4507 180.348 31.1694C180.707 30.8778 181.191 30.7319 181.806 30.7319C182.431 30.7319 183.004 30.8517 183.535 31.0861L183.306 31.7111C182.775 31.4924 182.269 31.3778 181.785 31.3778C181.394 31.3778 181.087 31.4611 180.868 31.6278C180.644 31.7944 180.535 32.034 180.535 32.3361C180.535 32.5601 180.577 32.7424 180.66 32.8778C180.743 33.0184 180.879 33.1434 181.077 33.2528C181.269 33.3674 181.561 33.4976 181.952 33.6486C182.618 33.8726 183.066 34.1226 183.306 34.3986C183.556 34.6642 183.681 35.0132 183.681 35.4403Z" fill="#00367D"/>
<path d="M190.874 35.4403C190.874 35.9976 190.67 36.4351 190.269 36.7528C189.863 37.0601 189.321 37.2111 188.644 37.2111C187.894 37.2111 187.316 37.1174 186.915 36.9194V36.2111C187.176 36.3257 187.457 36.4142 187.749 36.4819C188.051 36.5392 188.358 36.5653 188.665 36.5653C189.15 36.5653 189.519 36.4767 189.769 36.2944C190.019 36.1174 190.144 35.8569 190.144 35.5236C190.144 35.3048 190.092 35.1226 189.999 34.9819C189.915 34.8465 189.769 34.7215 189.561 34.6069C189.363 34.4819 189.051 34.3465 188.624 34.1903C188.04 33.9819 187.624 33.7424 187.374 33.4611C187.124 33.1694 186.999 32.7892 186.999 32.3153C186.999 31.8309 187.176 31.4507 187.54 31.1694C187.9 30.8778 188.384 30.7319 188.999 30.7319C189.624 30.7319 190.196 30.8517 190.728 31.0861L190.499 31.7111C189.967 31.4924 189.462 31.3778 188.978 31.3778C188.587 31.3778 188.28 31.4611 188.061 31.6278C187.837 31.7944 187.728 32.034 187.728 32.3361C187.728 32.5601 187.769 32.7424 187.853 32.8778C187.936 33.0184 188.071 33.1434 188.269 33.2528C188.462 33.3674 188.754 33.4976 189.144 33.6486C189.811 33.8726 190.259 34.1226 190.499 34.3986C190.749 34.6642 190.874 35.0132 190.874 35.4403Z" fill="#00367D"/>
<path d="M194.525 37.1278V30.8153H195.254V37.1278H194.525Z" fill="#00367D"/>
<path d="M204.793 33.9611C204.793 34.9767 204.532 35.7736 204.022 36.3569C203.522 36.9298 202.814 37.2111 201.897 37.2111C200.98 37.2111 200.262 36.9298 199.751 36.3569C199.251 35.7892 199.001 34.9924 199.001 33.9611C199.001 32.9351 199.251 32.1434 199.751 31.5861C200.262 31.0184 200.986 30.7319 201.918 30.7319C202.819 30.7319 203.522 31.0184 204.022 31.5861C204.532 32.159 204.793 32.9507 204.793 33.9611ZM199.772 33.9611C199.772 34.8257 199.949 35.4767 200.314 35.9194C200.689 36.3517 201.215 36.5653 201.897 36.5653C202.605 36.5653 203.131 36.3517 203.48 35.9194C203.84 35.4767 204.022 34.8257 204.022 33.9611C204.022 33.1174 203.84 32.4767 203.48 32.0444C203.131 31.6017 202.611 31.3778 201.918 31.3778C201.22 31.3778 200.689 31.6017 200.314 32.0444C199.949 32.4924 199.772 33.1278 199.772 33.9611Z" fill="#00367D"/>
<path d="M213.473 37.1278H212.64L209.182 31.8361H209.161C209.202 32.4611 209.223 33.0341 209.223 33.5445V37.1278H208.557V30.8153H209.369L212.807 36.0861H212.848C212.848 36.0184 212.833 35.7736 212.807 35.357C212.791 34.9299 212.786 34.6226 212.786 34.4403V30.8153H213.473V37.1278Z" fill="#00367D"/>
<path d="M221.517 37.1278L220.726 35.1278H218.205L217.434 37.1278H216.684L219.184 30.7944H219.788L222.267 37.1278H221.517ZM220.496 34.4611L219.767 32.5028C219.668 32.2528 219.569 31.9559 219.476 31.6069C219.403 31.8726 219.314 32.1694 219.205 32.5028L218.455 34.4611H220.496Z" fill="#00367D"/>
<path d="M225.493 37.1278V30.8153H226.222V36.4611H228.993V37.1278H225.493Z" fill="#00367D"/>
<path d="M242.523 33.9611C242.523 34.7684 242.361 35.4403 242.043 35.9819C241.721 36.5132 241.262 36.8726 240.668 37.0653L242.168 38.6278H241.106L239.877 37.2111H239.627C238.71 37.2111 237.991 36.9298 237.481 36.3569C236.981 35.7892 236.731 34.9924 236.731 33.9611C236.731 32.9351 236.981 32.1434 237.481 31.5861C237.991 31.0184 238.715 30.7319 239.648 30.7319C240.549 30.7319 241.252 31.0184 241.752 31.5861C242.262 32.159 242.523 32.9507 242.523 33.9611ZM237.502 33.9611C237.502 34.8257 237.679 35.4767 238.043 35.9194C238.418 36.3517 238.944 36.5653 239.627 36.5653C240.335 36.5653 240.861 36.3517 241.21 35.9194C241.569 35.4767 241.752 34.8257 241.752 33.9611C241.752 33.1174 241.569 32.4767 241.21 32.0444C240.861 31.6017 240.34 31.3778 239.648 31.3778C238.95 31.3778 238.418 31.6017 238.043 32.0444C237.679 32.4924 237.502 33.1278 237.502 33.9611Z" fill="#00367D"/>
<path d="M251.036 30.8153V34.8986C251.036 35.6226 250.818 36.1903 250.39 36.607C249.958 37.0132 249.359 37.2111 248.599 37.2111C247.833 37.2111 247.245 37.0132 246.828 36.607C246.422 36.1903 246.224 35.6174 246.224 34.8778V30.8153H246.953V34.9403C246.953 35.4716 247.088 35.8726 247.37 36.1486C247.661 36.4299 248.083 36.5653 248.64 36.5653C249.182 36.5653 249.588 36.4299 249.87 36.1486C250.161 35.8726 250.307 35.4611 250.307 34.9195V30.8153H251.036Z" fill="#00367D"/>
<path d="M259.019 37.1278L258.227 35.1278H255.706L254.935 37.1278H254.185L256.685 30.7944H257.289L259.769 37.1278H259.019ZM257.998 34.4611L257.269 32.5028C257.17 32.2528 257.071 31.9559 256.977 31.6069C256.904 31.8726 256.815 32.1694 256.706 32.5028L255.956 34.4611H257.998Z" fill="#00367D"/>
<path d="M262.994 37.1278V30.8153H263.723V36.4611H266.494V37.1278H262.994Z" fill="#00367D"/>
<path d="M269.924 37.1278V30.8153H270.653V37.1278H269.924Z" fill="#00367D"/>
<path d="M275.463 37.1278H274.734V30.8153H278.234V31.482H275.463V33.7736H278.067V34.4403H275.463V37.1278Z" fill="#00367D"/>
<path d="M281.638 37.1278V30.8153H282.367V37.1278H281.638Z" fill="#00367D"/>
<path d="M289.135 31.3778C288.437 31.3778 287.89 31.6174 287.489 32.0861C287.099 32.5444 286.906 33.1798 286.906 33.9819C286.906 34.8048 287.093 35.4403 287.468 35.8986C287.854 36.3465 288.411 36.5653 289.135 36.5653C289.562 36.5653 290.062 36.4819 290.635 36.3153V36.9611C290.203 37.1278 289.661 37.2111 289.01 37.2111C288.093 37.2111 287.375 36.9351 286.864 36.3778C286.364 35.8101 286.114 35.0028 286.114 33.9611C286.114 33.3101 286.229 32.7424 286.468 32.2528C286.718 31.7684 287.073 31.3934 287.531 31.1278C287.989 30.8674 288.531 30.7319 289.156 30.7319C289.807 30.7319 290.385 30.8517 290.885 31.0861L290.573 31.7319C290.099 31.4976 289.62 31.3778 289.135 31.3778Z" fill="#00367D"/>
<path d="M298.323 37.1278L297.531 35.1278H295.01L294.239 37.1278H293.489L295.989 30.7944H296.593L299.073 37.1278H298.323ZM297.302 34.4611L296.573 32.5028C296.474 32.2528 296.375 31.9559 296.281 31.6069C296.208 31.8726 296.119 32.1694 296.01 32.5028L295.26 34.4611H297.302Z" fill="#00367D"/>
<path d="M304.235 37.1278H303.506V31.482H301.506V30.8153H306.235V31.482H304.235V37.1278Z" fill="#00367D"/>
<path d="M309.529 37.1278V30.8153H310.259V37.1278H309.529Z" fill="#00367D"/>
<path d="M319.798 33.9611C319.798 34.9767 319.537 35.7736 319.027 36.3569C318.527 36.9298 317.818 37.2111 316.902 37.2111C315.985 37.2111 315.266 36.9298 314.756 36.3569C314.256 35.7892 314.006 34.9924 314.006 33.9611C314.006 32.9351 314.256 32.1434 314.756 31.5861C315.266 31.0184 315.99 30.7319 316.923 30.7319C317.824 30.7319 318.527 31.0184 319.027 31.5861C319.537 32.159 319.798 32.9507 319.798 33.9611ZM314.777 33.9611C314.777 34.8257 314.954 35.4767 315.318 35.9194C315.693 36.3517 316.219 36.5653 316.902 36.5653C317.61 36.5653 318.136 36.3517 318.485 35.9194C318.844 35.4767 319.027 34.8257 319.027 33.9611C319.027 33.1174 318.844 32.4767 318.485 32.0444C318.136 31.6017 317.615 31.3778 316.923 31.3778C316.225 31.3778 315.693 31.6017 315.318 32.0444C314.954 32.4924 314.777 33.1278 314.777 33.9611Z" fill="#00367D"/>
<path d="M328.478 37.1278H327.645L324.186 31.8361H324.165C324.207 32.4611 324.228 33.0341 324.228 33.5445V37.1278H323.561V30.8153H324.374L327.811 36.0861H327.853C327.853 36.0184 327.837 35.7736 327.811 35.357C327.796 34.9299 327.79 34.6226 327.79 34.4403V30.8153H328.478V37.1278Z" fill="#00367D"/>
<path d="M336.105 35.4403C336.105 35.9976 335.902 36.4351 335.501 36.7528C335.095 37.0601 334.553 37.2111 333.876 37.2111C333.126 37.2111 332.548 37.1174 332.147 36.9194V36.2111C332.407 36.3257 332.689 36.4142 332.98 36.4819C333.282 36.5392 333.59 36.5653 333.897 36.5653C334.381 36.5653 334.751 36.4767 335.001 36.2944C335.251 36.1174 335.376 35.8569 335.376 35.5236C335.376 35.3048 335.324 35.1226 335.23 34.9819C335.147 34.8465 335.001 34.7215 334.793 34.6069C334.595 34.4819 334.282 34.3465 333.855 34.1903C333.272 33.9819 332.855 33.7424 332.605 33.4611C332.355 33.1694 332.23 32.7892 332.23 32.3153C332.23 31.8309 332.407 31.4507 332.772 31.1694C333.131 30.8778 333.616 30.7319 334.23 30.7319C334.855 30.7319 335.428 30.8517 335.959 31.0861L335.73 31.7111C335.199 31.4924 334.694 31.3778 334.209 31.3778C333.819 31.3778 333.511 31.4611 333.293 31.6278C333.069 31.7944 332.959 32.034 332.959 32.3361C332.959 32.5601 333.001 32.7424 333.084 32.8778C333.168 33.0184 333.303 33.1434 333.501 33.2528C333.694 33.3674 333.985 33.4976 334.376 33.6486C335.043 33.8726 335.491 34.1226 335.73 34.3986C335.98 34.6642 336.105 35.0132 336.105 35.4403Z" fill="#00367D"/>
<path d="M145.977 87.4857H146.727V89.7982H146.039V88.1523H141.289V81.8398H142.018V87.4857H145.248V81.8398H145.977V87.4857Z" fill="#00367D"/>
<path d="M153.641 88.1523H150.141V81.8398H153.641V82.5065H150.87V84.5273H153.474V85.1732H150.87V87.5065H153.641V88.1523Z" fill="#00367D"/>
<path d="M162.169 88.1523H161.44V85.194H158.127V88.1523H157.398V81.8398H158.127V84.5273H161.44V81.8398H162.169V88.1523Z" fill="#00367D"/>
<path d="M168.196 88.1523H167.466V82.5065H165.466V81.8398H170.196V82.5065H168.196V88.1523Z" fill="#00367D"/>
<path d="M177.49 83.694C177.49 84.319 177.266 84.8086 176.823 85.1523C176.391 85.5013 175.766 85.6732 174.948 85.6732H174.219V88.1523H173.49V81.8398H175.115C176.698 81.8398 177.49 82.4596 177.49 83.694ZM174.219 85.0482H174.865C175.516 85.0482 175.99 84.944 176.281 84.7357C176.573 84.5273 176.719 84.1888 176.719 83.7148C176.719 83.2982 176.578 82.9961 176.302 82.7982C176.036 82.5898 175.615 82.4857 175.031 82.4857H174.219V85.0482Z" fill="#00367D"/>
<path d="M190.481 88.1523H189.752V82.5065H186.523V88.1523H185.794V81.8398H190.481V88.1523Z" fill="#00367D"/>
<path d="M198.576 83.694C198.576 84.319 198.352 84.8086 197.91 85.1523C197.477 85.5013 196.852 85.6732 196.035 85.6732H195.305V88.1523H194.576V81.8398H196.201C197.785 81.8398 198.576 82.4596 198.576 83.694ZM195.305 85.0482H195.951C196.602 85.0482 197.076 84.944 197.368 84.7357C197.66 84.5273 197.805 84.1888 197.805 83.7148C197.805 83.2982 197.665 82.9961 197.389 82.7982C197.123 82.5898 196.701 82.4857 196.118 82.4857H195.305V85.0482Z" fill="#00367D"/>
<path d="M202.239 81.8398H202.926V85.3607C202.926 86.0013 202.905 86.5846 202.864 87.1107H202.905L206.426 81.8398H207.239V88.1523H206.551V84.6732C206.551 84.1055 206.572 83.5013 206.614 82.8607H206.593L203.051 88.1523H202.239V81.8398Z" fill="#00367D"/>
<path d="M214.96 83.3191C214.96 83.7358 214.825 84.0795 214.564 84.3399C214.299 84.5899 213.939 84.7514 213.481 84.8191V84.8608C214.007 84.9337 214.403 85.1003 214.668 85.3608C214.944 85.6108 215.085 85.9441 215.085 86.3608C215.085 86.9597 214.861 87.4233 214.418 87.7566C213.986 88.0795 213.366 88.2358 212.564 88.2358C211.825 88.2358 211.22 88.1264 210.752 87.9024V87.2149C211.028 87.3556 211.325 87.4597 211.647 87.5274C211.965 87.6003 212.278 87.6316 212.585 87.6316C213.153 87.6316 213.585 87.5274 213.877 87.3191C214.168 87.1003 214.314 86.7878 214.314 86.3816C214.314 85.9962 214.147 85.7045 213.814 85.5066C213.491 85.2983 213.012 85.1941 212.377 85.1941H211.439V84.5899H212.335C212.929 84.5899 213.387 84.4858 213.71 84.2774C214.028 84.0587 214.189 83.7566 214.189 83.3816C214.189 83.0795 214.069 82.8347 213.835 82.6524C213.611 82.4597 213.299 82.3608 212.897 82.3608C212.575 82.3608 212.293 82.4024 212.043 82.4858C211.793 82.5587 211.491 82.6941 211.147 82.9024L210.793 82.4024C211.085 82.1941 211.408 82.0378 211.772 81.9233C212.132 81.8139 212.507 81.7566 212.897 81.7566C213.533 81.7566 214.033 81.9024 214.397 82.1941C214.772 82.4753 214.96 82.8503 214.96 83.3191Z" fill="#00367D"/>
<path d="M223.562 88.1523H222.833V85.194H219.52V88.1523H218.791V81.8398H219.52V84.5273H222.833V81.8398H223.562V88.1523Z" fill="#00367D"/>
<path d="M231.61 88.1524L230.818 86.1524H228.297L227.526 88.1524H226.776L229.276 81.8191H229.88L232.36 88.1524H231.61ZM230.589 85.4858L229.86 83.5274C229.761 83.2774 229.662 82.9806 229.568 82.6316C229.495 82.8972 229.407 83.1941 229.297 83.5274L228.547 85.4858H230.589Z" fill="#00367D"/>
<path d="M240.356 88.1523H239.627V85.194H236.314V88.1523H235.585V81.8398H236.314V84.5273H239.627V81.8398H240.356V88.1523Z" fill="#00367D"/>
<path d="M244.445 81.8398H245.133V85.3607C245.133 86.0013 245.112 86.5846 245.07 87.1107H245.112L248.633 81.8398H249.445V88.1523H248.758V84.6732C248.758 84.1055 248.778 83.5013 248.82 82.8607H248.799L245.258 88.1523H244.445V81.8398Z" fill="#00367D"/>
<path d="M255.375 85.5273L253.729 88.1523H252.875L254.625 85.4023C254.167 85.2513 253.833 85.0273 253.625 84.7357C253.417 84.4336 253.312 84.0586 253.312 83.6107C253.312 83.043 253.505 82.6055 253.896 82.2982C254.281 81.9961 254.875 81.8398 255.667 81.8398H257.396V88.1523H256.667V85.5273H255.375ZM256.667 82.4857H255.687C255.156 82.4857 254.755 82.5794 254.479 82.7565C254.213 82.9388 254.083 83.2305 254.083 83.6315C254.083 84.4648 254.625 84.8815 255.708 84.8815H256.667V82.4857Z" fill="#00367D"/>
<path d="M145.977 99.5186H145.248V93.8727H142.018V99.5186H141.289V93.2061H145.977V99.5186Z" fill="#00367D"/>
<path d="M154.072 95.0602C154.072 95.6852 153.848 96.1748 153.405 96.5186C152.973 96.8675 152.348 97.0394 151.53 97.0394H150.801V99.5186H150.072V93.2061H151.697C153.28 93.2061 154.072 93.8258 154.072 95.0602ZM150.801 96.4144H151.447C152.098 96.4144 152.572 96.3102 152.863 96.1019C153.155 95.8936 153.301 95.555 153.301 95.0811C153.301 94.6644 153.16 94.3623 152.884 94.1644C152.619 93.9561 152.197 93.8519 151.613 93.8519H150.801V96.4144Z" fill="#00367D"/>
<path d="M163.192 96.3518C163.192 97.3675 162.932 98.1643 162.422 98.7477C161.922 99.3206 161.213 99.6018 160.297 99.6018C159.38 99.6018 158.661 99.3206 158.151 98.7477C157.651 98.18 157.401 97.3831 157.401 96.3518C157.401 95.3258 157.651 94.5341 158.151 93.9768C158.661 93.4091 159.385 93.1227 160.317 93.1227C161.218 93.1227 161.922 93.4091 162.422 93.9768C162.932 94.5498 163.192 95.3414 163.192 96.3518ZM158.172 96.3518C158.172 97.2164 158.349 97.8675 158.713 98.3102C159.088 98.7425 159.614 98.956 160.297 98.956C161.005 98.956 161.531 98.7425 161.88 98.3102C162.239 97.8675 162.422 97.2164 162.422 96.3518C162.422 95.5081 162.239 94.8675 161.88 94.4352C161.531 93.9925 161.01 93.7685 160.317 93.7685C159.62 93.7685 159.088 93.9925 158.713 94.4352C158.349 94.8831 158.172 95.5185 158.172 96.3518Z" fill="#00367D"/>
<path d="M169.227 93.1227H169.977V93.8935H170.269C170.769 93.8935 171.196 93.9925 171.56 94.1852C171.92 94.3831 172.19 94.6591 172.373 95.0185C172.565 95.3831 172.664 95.7893 172.664 96.2477C172.664 96.7216 172.55 97.1435 172.331 97.5185C172.123 97.8935 171.831 98.18 171.456 98.3727C171.092 98.555 170.654 98.6435 170.144 98.6435H169.977V99.6018H169.227V98.6435H169.039C168.539 98.6435 168.102 98.5498 167.727 98.3518C167.352 98.1591 167.06 97.8727 166.852 97.4977C166.644 97.1227 166.539 96.706 166.539 96.2477C166.539 95.7893 166.633 95.3883 166.831 95.0393C167.024 94.68 167.3 94.4039 167.664 94.206C168.024 93.9977 168.446 93.8935 168.935 93.8935H169.227V93.1227ZM169.977 98.0185H170.081C170.664 98.0185 171.112 97.8675 171.435 97.5602C171.753 97.2425 171.914 96.7998 171.914 96.2268C171.914 95.7008 171.758 95.2841 171.456 94.9768C171.164 94.6748 170.753 94.5185 170.227 94.5185H169.977V98.0185ZM169.227 94.5185H168.998C168.467 94.5185 168.05 94.6748 167.748 94.9768C167.456 95.2841 167.31 95.7008 167.31 96.2268C167.31 96.7998 167.467 97.2425 167.789 97.5602C168.107 97.8675 168.55 98.0185 169.123 98.0185H169.227V94.5185Z" fill="#00367D"/>
<path d="M179.846 99.5186H176.346V93.2061H179.846V93.8727H177.075V95.8936H179.68V96.5394H177.075V98.8727H179.846V99.5186Z" fill="#00367D"/>
<path d="M186.291 93.7685C185.593 93.7685 185.046 94.0081 184.645 94.4768C184.255 94.9352 184.062 95.5706 184.062 96.3727C184.062 97.1956 184.249 97.831 184.624 98.2893C185.01 98.7373 185.567 98.956 186.291 98.956C186.718 98.956 187.218 98.8727 187.791 98.706V99.3518C187.359 99.5185 186.817 99.6018 186.166 99.6018C185.249 99.6018 184.531 99.3258 184.02 98.7685C183.52 98.2008 183.27 97.3935 183.27 96.3518C183.27 95.7008 183.385 95.1331 183.624 94.6435C183.874 94.1591 184.228 93.7841 184.687 93.5185C185.145 93.2581 185.687 93.1227 186.312 93.1227C186.963 93.1227 187.541 93.2425 188.041 93.4768L187.728 94.1227C187.255 93.8883 186.775 93.7685 186.291 93.7685Z" fill="#00367D"/>
<path d="M194.208 93.7685C193.51 93.7685 192.963 94.0081 192.562 94.4768C192.171 94.9352 191.978 95.5706 191.978 96.3727C191.978 97.1956 192.166 97.831 192.541 98.2893C192.926 98.7373 193.484 98.956 194.208 98.956C194.635 98.956 195.135 98.8727 195.708 98.706V99.3518C195.275 99.5185 194.734 99.6018 194.083 99.6018C193.166 99.6018 192.447 99.3258 191.937 98.7685C191.437 98.2008 191.187 97.3935 191.187 96.3518C191.187 95.7008 191.301 95.1331 191.541 94.6435C191.791 94.1591 192.145 93.7841 192.603 93.5185C193.062 93.2581 193.603 93.1227 194.228 93.1227C194.879 93.1227 195.458 93.2425 195.958 93.4768L195.645 94.1227C195.171 93.8883 194.692 93.7685 194.208 93.7685Z" fill="#00367D"/>
<path d="M199.437 93.2061H200.124V96.7269C200.124 97.3675 200.103 97.9508 200.062 98.4769H200.103L203.624 93.2061H204.437V99.5186H203.749V96.0394C203.749 95.4717 203.77 94.8675 203.812 94.2269H203.791L200.249 99.5186H199.437V93.2061Z" fill="#00367D"/>
<path d="M213.97 96.3518C213.97 97.3675 213.71 98.1643 213.2 98.7477C212.7 99.3206 211.991 99.6018 211.075 99.6018C210.158 99.6018 209.439 99.3206 208.929 98.7477C208.429 98.18 208.179 97.3831 208.179 96.3518C208.179 95.3258 208.429 94.5341 208.929 93.9768C209.439 93.4091 210.163 93.1227 211.095 93.1227C211.996 93.1227 212.7 93.4091 213.2 93.9768C213.71 94.5498 213.97 95.3414 213.97 96.3518ZM208.95 96.3518C208.95 97.2164 209.127 97.8675 209.491 98.3102C209.866 98.7425 210.392 98.956 211.075 98.956C211.783 98.956 212.309 98.7425 212.658 98.3102C213.017 97.8675 213.2 97.2164 213.2 96.3518C213.2 95.5081 213.017 94.8675 212.658 94.4352C212.309 93.9925 211.788 93.7685 211.095 93.7685C210.398 93.7685 209.866 93.9925 209.491 94.4352C209.127 94.8831 208.95 95.5185 208.95 96.3518Z" fill="#00367D"/>
<path d="M222.505 99.5186H221.776V96.5602H218.463V99.5186H217.734V93.2061H218.463V95.8936H221.776V93.2061H222.505V99.5186Z" fill="#00367D"/>
<path d="M230.553 99.5185L229.761 97.5185H227.24L226.469 99.5185H225.719L228.219 93.1852H228.823L231.303 99.5185H230.553ZM229.532 96.8518L228.803 94.8935C228.704 94.6435 228.605 94.3466 228.511 93.9977C228.438 94.2633 228.35 94.5602 228.24 94.8935L227.49 96.8518H229.532Z" fill="#00367D"/>
<path d="M239.007 99.5186H238.278V93.8727H236.216L236.091 94.8936C235.908 96.2686 235.747 97.279 235.611 97.9144C235.486 98.555 235.309 98.9977 235.091 99.2477C234.882 99.4977 234.596 99.6227 234.236 99.6227C234.012 99.6227 233.82 99.5863 233.653 99.5186V98.8936C233.804 98.9665 233.966 98.9977 234.132 98.9977C234.283 98.9977 234.413 98.9352 234.528 98.8102C234.653 98.6852 234.757 98.4717 234.841 98.1644C234.924 97.8623 235.033 97.279 235.174 96.4144C235.309 95.5394 235.455 94.4717 235.611 93.2061H239.007V99.5186Z" fill="#00367D"/>
<path d="M247.445 97.6852C247.445 98.2686 247.242 98.7217 246.841 99.0394C246.45 99.3623 245.893 99.5186 245.174 99.5186H243.091V93.2061H243.82V95.9144H245.07C245.83 95.9144 246.414 96.0706 246.82 96.3727C247.237 96.6644 247.445 97.1019 247.445 97.6852ZM243.82 98.8936H245.112C246.153 98.8936 246.674 98.4925 246.674 97.6852C246.674 97.2998 246.534 97.0133 246.258 96.8311C245.992 96.654 245.57 96.5602 244.987 96.5602H243.82V98.8936Z" fill="#00367D"/>
<path d="M255.886 99.5186H255.157V96.5602H251.844V99.5186H251.115V93.2061H251.844V95.8936H255.157V93.2061H255.886V99.5186Z" fill="#00367D"/>
<path d="M259.975 99.5186V93.2061H260.704V95.9144H261.725C262.475 95.9144 263.043 96.0602 263.434 96.3519C263.835 96.6436 264.038 97.0915 264.038 97.6852C264.038 98.2686 263.85 98.7217 263.475 99.0394C263.1 99.3623 262.559 99.5186 261.85 99.5186H259.975ZM260.704 98.8936H261.767C262.277 98.8936 262.663 98.7998 262.913 98.6019C263.163 98.3936 263.288 98.0915 263.288 97.6852C263.288 97.2842 263.152 96.9977 262.892 96.8311C262.642 96.654 262.225 96.5602 261.642 96.5602H260.704V98.8936ZM265.767 99.5186H265.038V93.2061H265.767V99.5186Z" fill="#00367D"/>
<path d="M274.04 99.5186H273.206L271.519 96.7477L269.79 99.5186H269.019L271.102 96.2269L269.144 93.2061H269.956L271.54 95.7061L273.102 93.2061H273.894L271.936 96.2061L274.04 99.5186Z" fill="#00367D"/>
<path d="M286.457 99.5186H285.582L282.666 96.3311V99.5186H281.937V93.2061H282.666V96.2686L285.499 93.2061H286.353L283.562 96.2686L286.457 99.5186Z" fill="#00367D"/>
<path d="M289.685 93.2061H291.456C292.289 93.2061 292.893 93.3311 293.268 93.5811C293.643 93.8311 293.831 94.2269 293.831 94.7686C293.831 95.1436 293.727 95.4561 293.518 95.7061C293.31 95.9456 293.003 96.0967 292.602 96.1644V96.2061C293.56 96.3727 294.039 96.8831 294.039 97.7269C294.039 98.2842 293.841 98.7217 293.456 99.0394C293.081 99.3623 292.55 99.5186 291.873 99.5186H289.685V93.2061ZM290.414 95.9144H291.623C292.133 95.9144 292.503 95.8415 292.727 95.6852C292.961 95.5186 293.081 95.2425 293.081 94.8519C293.081 94.4925 292.946 94.2373 292.685 94.0811C292.435 93.93 292.039 93.8519 291.498 93.8519H290.414V95.9144ZM290.414 96.5394V98.8936H291.727C292.237 98.8936 292.623 98.7998 292.873 98.6019C293.133 98.4092 293.268 98.0967 293.268 97.6644C293.268 97.279 293.133 96.9925 292.873 96.8102C292.607 96.6331 292.206 96.5394 291.664 96.5394H290.414Z" fill="#00367D"/>
<path d="M301.711 99.5185L300.919 97.5185H298.398L297.627 99.5185H296.877L299.377 93.1852H299.982L302.461 99.5185H301.711ZM300.69 96.8518L299.961 94.8935C299.862 94.6435 299.763 94.3466 299.669 93.9977C299.596 94.2633 299.508 94.5602 299.398 94.8935L298.648 96.8518H300.69Z" fill="#00367D"/>
<path d="M310.165 99.5186H309.436V93.8727H307.374L307.249 94.8936C307.066 96.2686 306.905 97.279 306.77 97.9144C306.645 98.555 306.467 98.9977 306.249 99.2477C306.04 99.4977 305.754 99.6227 305.395 99.6227C305.171 99.6227 304.978 99.5863 304.811 99.5186V98.8936C304.962 98.9665 305.124 98.9977 305.29 98.9977C305.441 98.9977 305.572 98.9352 305.686 98.8102C305.811 98.6852 305.915 98.4717 305.999 98.1644C306.082 97.8623 306.191 97.279 306.332 96.4144C306.467 95.5394 306.613 94.4717 306.77 93.2061H310.165V99.5186Z" fill="#00367D"/>
<path d="M314.249 93.2061H314.936V96.7269C314.936 97.3675 314.916 97.9508 314.874 98.4769H314.916L318.436 93.2061H319.249V99.5186H318.561V96.0394C318.561 95.4717 318.582 94.8675 318.624 94.2269H318.603L315.061 99.5186H314.249V93.2061Z" fill="#00367D"/>
<path d="M325.595 93.1227H326.345V93.8935H326.637C327.137 93.8935 327.564 93.9925 327.929 94.1852C328.288 94.3831 328.559 94.6591 328.741 95.0185C328.934 95.3831 329.033 95.7893 329.033 96.2477C329.033 96.7216 328.918 97.1435 328.7 97.5185C328.491 97.8935 328.2 98.18 327.825 98.3727C327.46 98.555 327.022 98.6435 326.512 98.6435H326.345V99.6018H325.595V98.6435H325.408C324.908 98.6435 324.47 98.5498 324.095 98.3518C323.72 98.1591 323.429 97.8727 323.22 97.4977C323.012 97.1227 322.908 96.706 322.908 96.2477C322.908 95.7893 323.002 95.3883 323.2 95.0393C323.392 94.68 323.668 94.4039 324.033 94.206C324.392 93.9977 324.814 93.8935 325.304 93.8935H325.595V93.1227ZM326.345 98.0185H326.45C327.033 98.0185 327.481 97.8675 327.804 97.5602C328.121 97.2425 328.283 96.7998 328.283 96.2268C328.283 95.7008 328.127 95.2841 327.825 94.9768C327.533 94.6748 327.121 94.5185 326.595 94.5185H326.345V98.0185ZM325.595 94.5185H325.366C324.835 94.5185 324.418 94.6748 324.116 94.9768C323.825 95.2841 323.679 95.7008 323.679 96.2268C323.679 96.7998 323.835 97.2425 324.158 97.5602C324.476 97.8675 324.918 98.0185 325.491 98.0185H325.595V94.5185Z" fill="#00367D"/>
<path d="M332.715 93.2061H333.402V96.7269C333.402 97.3675 333.381 97.9508 333.34 98.4769H333.381L336.902 93.2061H337.715V99.5186H337.027V96.0394C337.027 95.4717 337.048 94.8675 337.09 94.2269H337.069L333.527 99.5186H332.715V93.2061Z" fill="#00367D"/>
<path d="M346.311 99.5186H345.436L342.519 96.3311V99.5186H341.79V93.2061H342.519V96.2686L345.353 93.2061H346.207L343.415 96.2686L346.311 99.5186Z" fill="#00367D"/>
<path d="M353.497 99.5185L352.705 97.5185H350.184L349.414 99.5185H348.664L351.164 93.1852H351.768L354.247 99.5185H353.497ZM352.476 96.8518L351.747 94.8935C351.648 94.6435 351.549 94.3466 351.455 93.9977C351.382 94.2633 351.294 94.5602 351.184 94.8935L350.434 96.8518H352.476Z" fill="#00367D"/>
<path d="M362.16 98.8519H362.91V101.164H362.222V99.5186H357.472V93.2061H358.202V98.8519H361.431V93.2061H362.16V98.8519Z" fill="#00367D"/>
<path d="M366.324 93.2061H367.011V96.7269C367.011 97.3675 366.991 97.9508 366.949 98.4769H366.991L370.511 93.2061H371.324V99.5186H370.636V96.0394C370.636 95.4717 370.657 94.8675 370.699 94.2269H370.678L367.136 99.5186H366.324V93.2061Z" fill="#00367D"/>
<path d="M375.399 93.2061H376.087V96.7269C376.087 97.3675 376.066 97.9508 376.024 98.4769H376.066L379.587 93.2061H380.399V99.5186H379.712V96.0394C379.712 95.4717 379.733 94.8675 379.774 94.2269H379.754L376.212 99.5186H375.399V93.2061ZM378.024 92.7061C377.493 92.7061 377.108 92.6019 376.858 92.3936C376.608 92.1852 376.467 91.8519 376.441 91.3936H377.129C377.155 91.6852 377.233 91.8936 377.358 92.0186C377.483 92.1331 377.712 92.1852 378.045 92.1852C378.337 92.1852 378.551 92.1227 378.691 91.9977C378.842 91.8727 378.931 91.6748 378.962 91.3936H379.629C379.597 91.8415 379.452 92.1748 379.191 92.3936C378.941 92.6019 378.551 92.7061 378.024 92.7061Z" fill="#00367D"/>
<path d="M145.81 58.1689H144.935L142.018 54.9814V58.1689H141.289V51.8564H142.018V54.9189L144.852 51.8564H145.706L142.914 54.9189L145.81 58.1689Z" fill="#00367D"/>
<path d="M151.017 52.419C150.361 52.419 149.715 52.5336 149.079 52.7524V52.0649C149.397 51.9555 149.71 51.8774 150.017 51.8357C150.319 51.794 150.668 51.7732 151.058 51.7732C152.001 51.7732 152.736 52.0597 153.267 52.6274C153.793 53.2003 154.058 53.9972 154.058 55.0232C154.058 56.0388 153.808 56.8305 153.308 57.3982C152.819 57.9711 152.131 58.2524 151.246 58.2524C149.522 58.2524 148.663 57.1794 148.663 55.0232V54.7315H153.288C153.23 53.9711 153.017 53.393 152.642 53.0024C152.267 52.6169 151.725 52.419 151.017 52.419ZM151.246 57.6065C151.84 57.6065 152.319 57.4138 152.683 57.0232C153.043 56.6378 153.246 56.0857 153.288 55.3774H149.454C149.454 56.143 149.6 56.7055 149.892 57.0649C150.183 57.4294 150.631 57.6065 151.246 57.6065Z" fill="#00367D"/>
<path d="M160.516 52.419C159.818 52.419 159.272 52.6586 158.871 53.1274C158.48 53.5857 158.287 54.2211 158.287 55.0232C158.287 55.8461 158.475 56.4815 158.85 56.9399C159.235 57.3878 159.792 57.6065 160.516 57.6065C160.943 57.6065 161.443 57.5232 162.016 57.3565V58.0024C161.584 58.169 161.042 58.2524 160.391 58.2524C159.475 58.2524 158.756 57.9763 158.246 57.419C157.746 56.8513 157.496 56.044 157.496 55.0024C157.496 54.3513 157.61 53.7836 157.85 53.294C158.1 52.8097 158.454 52.4347 158.912 52.169C159.371 51.9086 159.912 51.7732 160.537 51.7732C161.188 51.7732 161.766 51.893 162.266 52.1274L161.954 52.7732C161.48 52.5388 161.001 52.419 160.516 52.419Z" fill="#00367D"/>
<path d="M165.745 58.1689V51.8564H166.475V58.1689H165.745Z" fill="#00367D"/>
<path d="M175.243 58.1689H174.514V52.5231H171.284V58.1689H170.555V51.8564H175.243V58.1689Z" fill="#00367D"/>
<path d="M181.275 58.1689H180.546V52.5231H178.546V51.8564H183.275V52.5231H181.275V58.1689Z" fill="#00367D"/>
<path d="M186.569 58.1689V51.8564H187.298V58.1689H186.569Z" fill="#00367D"/>
<path d="M195.9 58.1689H195.025L192.108 54.9814V58.1689H191.379V51.8564H192.108V54.9189L194.942 51.8564H195.796L193.004 54.9189L195.9 58.1689Z" fill="#00367D"/>
<path d="M207.853 56.3356C207.853 56.9606 207.665 57.4294 207.29 57.7314C206.915 58.0231 206.353 58.1689 205.603 58.1689H203.77V51.8564H207.478V52.5231H204.499V54.5648H205.478C206.03 54.5648 206.483 54.6273 206.832 54.7523C207.176 54.8773 207.436 55.0648 207.603 55.3148C207.77 55.5648 207.853 55.9085 207.853 56.3356ZM204.499 57.5439H205.52C206.072 57.5439 206.467 57.4554 206.707 57.2731C206.957 57.0804 207.082 56.7679 207.082 56.3356C207.082 55.9189 206.957 55.6273 206.707 55.4606C206.457 55.2939 206.02 55.2106 205.395 55.2106H204.499V57.5439Z" fill="#00367D"/>
<path d="M211.527 58.1689V51.8564H212.256V58.1689H211.527Z" fill="#00367D"/>
<path d="M220.816 58.1689H220.087V52.5231H218.024L217.899 53.5439C217.717 54.9189 217.555 55.9294 217.42 56.5648C217.295 57.2054 217.118 57.6481 216.899 57.8981C216.691 58.1481 216.404 58.2731 216.045 58.2731C215.821 58.2731 215.628 58.2367 215.462 58.1689V57.5439C215.613 57.6169 215.774 57.6481 215.941 57.6481C216.092 57.6481 216.222 57.5856 216.337 57.4606C216.462 57.3356 216.566 57.1221 216.649 56.8148C216.732 56.5127 216.842 55.9294 216.982 55.0648C217.118 54.1898 217.264 53.1221 217.42 51.8564H220.816V58.1689Z" fill="#00367D"/>
<path d="M224.899 58.1689V51.8564H225.629V58.1689H224.899Z" fill="#00367D"/>
<path d="M234.23 58.1689H233.355L230.438 54.9814V58.1689H229.709V51.8564H230.438V54.9189L233.272 51.8564H234.126L231.334 54.9189L234.23 58.1689Z" fill="#00367D"/>
<path d="M239.395 58.1689H238.666V52.5231H236.666V51.8564H241.395V52.5231H239.395V58.1689Z" fill="#00367D"/>
<path d="M244.689 58.1689V51.8564H245.418V58.1689H244.689Z" fill="#00367D"/>
<path d="M253.978 58.1689H253.249V52.5231H251.187L251.062 53.5439C250.879 54.9189 250.718 55.9294 250.582 56.5648C250.457 57.2054 250.28 57.6481 250.062 57.8981C249.853 58.1481 249.567 58.2731 249.207 58.2731C248.983 58.2731 248.791 58.2367 248.624 58.1689V57.5439C248.775 57.6169 248.937 57.6481 249.103 57.6481C249.254 57.6481 249.385 57.5856 249.499 57.4606C249.624 57.3356 249.728 57.1221 249.812 56.8148C249.895 56.5127 250.004 55.9294 250.145 55.0648C250.28 54.1898 250.426 53.1221 250.582 51.8564H253.978V58.1689Z" fill="#00367D"/>
<path d="M258.062 58.1689V51.8564H258.791V58.1689H258.062Z" fill="#00367D"/>
<path d="M267.393 58.1689H266.518L263.601 54.9814V58.1689H262.872V51.8564H263.601V54.9189L266.434 51.8564H267.288L264.497 54.9189L267.393 58.1689Z" fill="#00367D"/>
<path d="M272.558 58.1689H271.829V52.5231H269.829V51.8564H274.558V52.5231H272.558V58.1689Z" fill="#00367D"/>
<path d="M277.852 58.1689V51.8564H278.581V58.1689H277.852Z" fill="#00367D"/>
<path d="M289.241 58.1689H288.512V52.5231H286.512V51.8564H291.241V52.5231H289.241V58.1689Z" fill="#00367D"/>
<path d="M298.493 58.169L297.702 56.169H295.181L294.41 58.169H293.66L296.16 51.8357H296.764L299.243 58.169H298.493ZM297.472 55.5024L296.743 53.544C296.644 53.294 296.545 52.9972 296.452 52.6482C296.379 52.9138 296.29 53.2107 296.181 53.544L295.431 55.5024H297.472Z" fill="#00367D"/>
<path d="M307.24 58.1689H306.51V55.2106H303.198V58.1689H302.469V51.8564H303.198V54.5439H306.51V51.8564H307.24V58.1689Z" fill="#00367D"/>
<path d="M311.725 58.2523C311.402 58.2523 311.12 58.2106 310.87 58.1273V57.4189C311.147 57.5335 311.417 57.5856 311.683 57.5856C312.001 57.5856 312.256 57.5179 312.454 57.3773C312.647 57.2419 312.834 56.971 313.016 56.5648L310.579 51.8564H311.391L313.245 55.4398C313.313 55.596 313.37 55.7314 313.412 55.8564H313.454C313.522 55.6221 313.579 55.471 313.62 55.3981L315.162 51.8564H315.933L313.933 56.3773C313.683 56.9189 313.459 57.3148 313.266 57.5648C313.068 57.8044 312.85 57.9762 312.6 58.0856C312.36 58.195 312.068 58.2523 311.725 58.2523Z" fill="#00367D"/>
<path d="M146.748 66.3684C146.748 67.3841 146.487 68.1809 145.977 68.7643C145.477 69.3372 144.768 69.6184 143.852 69.6184C142.935 69.6184 142.216 69.3372 141.706 68.7643C141.206 68.1966 140.956 67.3997 140.956 66.3684C140.956 65.3424 141.206 64.5507 141.706 63.9934C142.216 63.4257 142.94 63.1393 143.873 63.1393C144.774 63.1393 145.477 63.4257 145.977 63.9934C146.487 64.5664 146.748 65.358 146.748 66.3684ZM141.727 66.3684C141.727 67.233 141.904 67.8841 142.268 68.3268C142.643 68.7591 143.169 68.9726 143.852 68.9726C144.56 68.9726 145.086 68.7591 145.435 68.3268C145.794 67.8841 145.977 67.233 145.977 66.3684C145.977 65.5247 145.794 64.8841 145.435 64.4518C145.086 64.0091 144.565 63.7851 143.873 63.7851C143.175 63.7851 142.643 64.0091 142.268 64.4518C141.904 64.8997 141.727 65.5351 141.727 66.3684Z" fill="#00367D"/>
<path d="M154.511 65.0768C154.511 65.7018 154.287 66.1914 153.845 66.5352C153.412 66.8841 152.787 67.056 151.97 67.056H151.24V69.5352H150.511V63.2227H152.136C153.72 63.2227 154.511 63.8424 154.511 65.0768ZM151.24 66.431H151.886C152.537 66.431 153.011 66.3268 153.303 66.1185C153.595 65.9102 153.74 65.5716 153.74 65.0977C153.74 64.681 153.6 64.3789 153.324 64.181C153.058 63.9727 152.636 63.8685 152.053 63.8685H151.24V66.431Z" fill="#00367D"/>
<path d="M160.111 69.5352H159.382V63.8893H157.382V63.2227H162.111V63.8893H160.111V69.5352Z" fill="#00367D"/>
<path d="M169.363 69.5351L168.572 67.5351H166.051L165.28 69.5351H164.53L167.03 63.2018H167.634L170.113 69.5351H169.363ZM168.342 66.8684L167.613 64.9101C167.514 64.6601 167.415 64.3632 167.322 64.0143C167.249 64.2799 167.16 64.5768 167.051 64.9101L166.301 66.8684H168.342Z" fill="#00367D"/>
<path d="M177.818 69.5352H177.089V63.8893H175.026L174.901 64.9102C174.719 66.2852 174.557 67.2956 174.422 67.931C174.297 68.5716 174.12 69.0143 173.901 69.2643C173.693 69.5143 173.406 69.6393 173.047 69.6393C172.823 69.6393 172.63 69.6029 172.464 69.5352V68.9102C172.615 68.9831 172.776 69.0143 172.943 69.0143C173.094 69.0143 173.224 68.9518 173.339 68.8268C173.464 68.7018 173.568 68.4883 173.651 68.181C173.735 67.8789 173.844 67.2956 173.985 66.431C174.12 65.556 174.266 64.4883 174.422 63.2227H177.818V69.5352Z" fill="#00367D"/>
<path d="M181.902 69.5352V63.2227H182.631V65.931H183.652C184.402 65.931 184.969 66.0768 185.36 66.3685C185.761 66.6602 185.964 67.1081 185.964 67.7018C185.964 68.2852 185.777 68.7383 185.402 69.056C185.027 69.3789 184.485 69.5352 183.777 69.5352H181.902ZM182.631 68.9102H183.693C184.204 68.9102 184.589 68.8164 184.839 68.6185C185.089 68.4102 185.214 68.1081 185.214 67.7018C185.214 67.3008 185.079 67.0143 184.818 66.8477C184.568 66.6706 184.152 66.5768 183.568 66.5768H182.631V68.9102ZM187.693 69.5352H186.964V63.2227H187.693V69.5352Z" fill="#00367D"/>
<path d="M195.362 63.2227V63.8893H192.508V66.0977H194.341V66.7435H192.508V69.5352H191.779V66.7435H191.112V66.0977H191.779V63.2227H195.362Z" fill="#00367D"/>
<path d="M198.777 69.5352V63.2227H199.506V65.931H200.527C201.277 65.931 201.845 66.0768 202.236 66.3685C202.637 66.6602 202.84 67.1081 202.84 67.7018C202.84 68.2852 202.652 68.7383 202.277 69.056C201.902 69.3789 201.361 69.5352 200.652 69.5352H198.777ZM199.506 68.9102H200.569C201.079 68.9102 201.465 68.8164 201.715 68.6185C201.965 68.4102 202.09 68.1081 202.09 67.7018C202.09 67.3008 201.954 67.0143 201.694 66.8477C201.444 66.6706 201.027 66.5768 200.444 66.5768H199.506V68.9102ZM204.569 69.5352H203.84V63.2227H204.569V69.5352Z" fill="#00367D"/>
<path d="M22.3802 48.974C25.6615 48.974 28.2553 49.7917 30.1615 51.4323C32.073 53.073 33.0313 55.4167 33.0313 58.4688H26.2396C26.2396 57.1771 25.9011 56.1615 25.224 55.4115C24.5469 54.6615 23.5886 54.2865 22.3386 54.2865C20.9063 54.2865 19.849 54.7396 19.1719 55.6407C18.4948 56.5417 18.1563 57.7969 18.1563 59.4063V61.4636C18.1563 63.0521 18.4948 64.3021 19.1719 65.2136C19.849 66.125 20.8802 66.5834 22.2761 66.5834C23.6511 66.5834 24.6927 66.2292 25.3959 65.5209C26.1094 64.8125 26.4688 63.8125 26.4688 62.5261H33.0313C33.0313 65.5521 32.1042 67.875 30.25 69.4844C28.3907 71.0938 25.7709 71.8959 22.3802 71.8959C18.599 71.8959 15.7396 70.9323 13.7969 69.0053C11.849 67.0677 10.8802 64.2136 10.8802 60.4323C10.8802 56.6563 11.849 53.8021 13.7969 51.875C15.7396 49.9375 18.599 48.974 22.3802 48.974ZM57.8855 56.1511C57.8855 57.5 57.5157 58.724 56.7813 59.823C56.0573 60.9167 54.9948 61.7188 53.599 62.2344L58.5313 71.5105H50.5417L46.6094 63.4271H43.9688V71.5105H36.8542V49.3594H50.4167C52.0053 49.3594 53.3594 49.6615 54.4896 50.2761C55.6146 50.8855 56.4636 51.7084 57.0261 52.7552C57.599 53.7969 57.8855 54.9271 57.8855 56.1511ZM50.6355 56.4428C50.6355 55.8594 50.4428 55.375 50.0521 54.9948C49.6719 54.6042 49.198 54.4115 48.6407 54.4115H43.9688V58.5H48.6407C49.198 58.5 49.6719 58.3021 50.0521 57.9115C50.4428 57.5105 50.6355 57.0209 50.6355 56.4428ZM74.3282 49.3594C75.698 49.3594 76.9219 49.6719 77.9948 50.3073C79.073 50.9427 79.9063 51.8125 80.5053 52.9167C81.1094 54.0261 81.4115 55.2657 81.4115 56.6355V57.0521C81.4115 58.4271 81.1094 59.6719 80.5053 60.7865C79.9063 61.9063 79.073 62.7813 77.9948 63.4115C76.9219 64.0469 75.698 64.3646 74.3282 64.3646H69.0105V71.5105H61.8959V49.3594H74.3282ZM69.0105 59.1771H71.9428C72.6928 59.1771 73.2553 58.9844 73.6355 58.6042C74.0105 58.2136 74.198 57.6875 74.198 57.0209V56.7605C74.198 56.0782 74.0105 55.5469 73.6355 55.1771C73.2553 54.7969 72.6928 54.6094 71.9428 54.6094H69.0105V59.1771ZM84.2032 60.4323C84.2032 56.6771 85.2344 53.8282 87.3073 51.8907C89.3803 49.9427 92.3282 48.974 96.1511 48.974C99.9688 48.974 102.922 49.948 105 51.9063C107.089 53.8542 108.13 56.698 108.13 60.4323C108.13 62.9219 107.662 65.0209 106.724 66.7292C105.792 68.4323 104.432 69.724 102.651 70.6042L107.708 75.7344H99.2396L95.8282 71.8959C92.0886 71.8334 89.2188 70.8282 87.2136 68.8855C85.2032 66.9428 84.2032 64.125 84.2032 60.4323ZM100.849 59.4063C100.849 57.8386 100.448 56.5938 99.6407 55.6719C98.8386 54.75 97.6771 54.2865 96.1511 54.2865C94.6251 54.2865 93.4636 54.75 92.6667 55.6719C91.8751 56.5938 91.4792 57.8386 91.4792 59.4063V61.4636C91.4792 63.0313 91.8751 64.2761 92.6667 65.198C93.4636 66.1198 94.6251 66.5834 96.1511 66.5834C97.6771 66.5834 98.8386 66.1198 99.6407 65.198C100.448 64.2761 100.849 63.0313 100.849 61.4636V59.4063Z" stroke="#F4F5F7" stroke-width="2.41519"/>
<path d="M22.3689 48.9689C25.6606 48.9689 28.2544 49.7918 30.1606 51.4272C32.0773 53.0678 33.0356 55.4168 33.0356 58.4689H26.2439C26.2439 57.1772 25.9002 56.1564 25.2231 55.4064C24.5564 54.6564 23.5981 54.2814 22.3481 54.2814C20.9002 54.2814 19.8377 54.7345 19.1606 55.6355C18.4939 56.5418 18.1606 57.797 18.1606 59.4064V61.4689C18.1606 63.0522 18.4939 64.3022 19.1606 65.2189C19.8377 66.1251 20.8794 66.573 22.2856 66.573C23.6606 66.573 24.7023 66.2189 25.4106 65.5105C26.1189 64.8022 26.4731 63.8126 26.4731 62.5314H33.0356C33.0356 65.5626 32.1033 67.8803 30.2439 69.4897C28.395 71.1043 25.77 71.9064 22.3689 71.9064C18.5877 71.9064 15.7283 70.9428 13.7856 69.0105C11.8533 67.0678 10.8898 64.2085 10.8898 60.4272C10.8898 56.6512 11.8533 53.797 13.7856 51.8647C15.7283 49.9376 18.5877 48.9689 22.3689 48.9689Z" fill="#004AAD"/>
<path d="M57.89 56.1564C57.89 57.5053 57.5202 58.7293 56.7858 59.823C56.0619 60.922 54.9994 61.7293 53.5983 62.2397L58.5358 71.5105H50.5358L46.6192 63.4272H43.9733V71.5105H36.8483V49.3439H50.4108C52.0046 49.3439 53.3692 49.6512 54.4942 50.2605C55.6192 50.8751 56.4629 51.698 57.0358 52.7397C57.6035 53.7814 57.89 54.922 57.89 56.1564ZM50.64 56.4272C50.64 55.8595 50.4421 55.3803 50.0567 54.9897C49.666 54.6043 49.1921 54.4064 48.64 54.4064H43.9733V58.4897H48.64C49.1921 58.4897 49.666 58.297 50.0567 57.9064C50.4421 57.5053 50.64 57.0105 50.64 56.4272Z" fill="#004AAD"/>
<path d="M74.3276 49.3439C75.7026 49.3439 76.9214 49.6668 77.9943 50.3022C79.0776 50.9428 79.9162 51.8178 80.5151 52.9272C81.1089 54.0262 81.411 55.2605 81.411 56.6355V57.0522C81.411 58.4272 81.1089 59.6772 80.5151 60.8022C79.9162 61.9168 79.0776 62.7918 77.9943 63.4272C76.9214 64.0522 75.7026 64.3647 74.3276 64.3647H69.0151V71.5105H61.8901V49.3439H74.3276ZM69.0151 59.1772H71.9526C72.7026 59.1772 73.2651 58.9845 73.6401 58.5939C74.0151 58.2085 74.2026 57.6772 74.2026 57.0105V56.7605C74.2026 56.0678 74.0151 55.5314 73.6401 55.1564C73.2651 54.7814 72.7026 54.5939 71.9526 54.5939H69.0151V59.1772Z" fill="#004AAD"/>
<path d="M84.2128 60.4272C84.2128 56.6772 85.2441 53.8335 87.317 51.8855C89.3847 49.9428 92.3274 48.9689 96.1503 48.9689C99.968 48.9689 102.921 49.948 105.004 51.9064C107.088 53.8543 108.129 56.6928 108.129 60.4272C108.129 62.9272 107.661 65.0314 106.734 66.7397C105.801 68.4376 104.442 69.7293 102.65 70.6147L107.713 75.7397H99.2545L95.8378 71.9064C92.0982 71.8335 89.2232 70.8335 87.2128 68.8855C85.2128 66.9428 84.2128 64.1251 84.2128 60.4272ZM100.859 59.4064C100.859 57.8387 100.452 56.5939 99.6503 55.6772C98.843 54.7501 97.6764 54.2814 96.1503 54.2814C94.6191 54.2814 93.4628 54.7501 92.6712 55.6772C91.8795 56.5939 91.4837 57.8387 91.4837 59.4064V61.4689C91.4837 63.0418 91.8795 64.2814 92.6712 65.198C93.4628 66.1147 94.6191 66.573 96.1503 66.573C97.6764 66.573 98.843 66.1147 99.6503 65.198C100.452 64.2814 100.859 63.0418 100.859 61.4689V59.4064Z" fill="#004AAD"/>
</svg>
