<svg width="70" height="72" viewBox="0 0 70 72" fill="none" xmlns="http://www.w3.org/2000/svg">
<mask id="mask0_138_10548" style="mask-type:luminance" maskUnits="userSpaceOnUse" x="33" y="0" width="6" height="3">
<path d="M33.0689 0.110107H38.6057V2.96807H33.0689V0.110107Z" fill="white"/>
</mask>
<g mask="url(#mask0_138_10548)">
<path d="M34.5366 2.14632C35.2904 2.32552 36.2977 2.56961 37.0516 2.7519C37.3358 2.47074 37.7097 2.08762 37.963 1.78174C37.2802 1.31519 36.585 0.944432 35.8868 0.681808C35.2904 0.610745 34.4902 0.518055 33.8908 0.459351C33.7765 0.613835 33.6004 0.808485 33.4552 0.938252C33.8105 1.23795 34.172 1.6427 34.5366 2.14632Z" fill="#689AC5"/>
</g>
<path d="M30.1492 2.72415C30.7239 2.91571 31.4901 3.16907 32.0679 3.35136C32.5437 3.02694 33.1709 2.5913 33.6375 2.25452C33.3594 1.74163 33.0844 1.32761 32.8218 1.01555C32.4109 0.938311 31.864 0.833261 31.4561 0.75293C31.1225 0.932131 30.6806 1.17004 30.3469 1.34924C30.2635 1.70764 30.1955 2.16801 30.1492 2.72415Z" fill="#274082"/>
<path d="M25.9318 3.3944C26.2902 3.61068 26.7783 3.88875 27.1553 4.07722C27.7887 3.70955 28.6291 3.22138 29.2624 2.85371C29.3953 2.2852 29.5467 1.81248 29.7197 1.44172C29.5158 1.34903 29.2408 1.22544 29.0523 1.10803C28.5426 1.31813 27.8628 1.60238 27.3561 1.82175C26.8494 2.24813 26.3736 2.77337 25.9318 3.3944Z" fill="#69A2CD"/>
<path d="M22.1562 4.11128C22.2705 4.35845 22.4528 4.67051 22.6227 4.88061C23.3673 4.47277 24.3653 3.93516 25.113 3.53659C25.6352 2.9063 26.1913 2.3656 26.7784 1.92687C26.7598 1.7971 26.7722 1.61172 26.834 1.50049C26.1882 1.74457 25.3262 2.07517 24.6836 2.33161C23.7999 2.82905 22.9564 3.42537 22.1562 4.11128Z" fill="#69A2CD"/>
<path d="M19.1036 4.8343C18.9769 5.08456 18.8317 5.4337 18.7822 5.70559C19.5825 5.26686 20.6546 4.68599 21.4672 4.26271C22.3292 3.56135 23.2376 2.94959 24.1923 2.43979C24.4086 2.26059 24.7144 2.04122 24.9585 1.90527C24.2232 2.17717 23.2437 2.55102 22.5177 2.84454C21.3281 3.41304 20.188 4.08041 19.1036 4.8343Z" fill="#69A2CD"/>
<path d="M17.0891 5.4956C16.7369 5.78294 16.2734 6.17842 15.9583 6.50283C16.743 6.03629 17.7935 5.42144 18.5907 4.97653C19.7246 4.21028 20.9141 3.53055 22.1531 2.9466C22.5733 2.7365 23.1418 2.47079 23.5774 2.29468C22.8266 2.5882 21.8287 2.99295 21.0902 3.31427C19.6968 3.94766 18.362 4.67992 17.0891 5.4956Z" fill="#69A2CD"/>
<path d="M16.8419 5.61299C17.5803 5.14336 18.3373 4.69844 19.1159 4.28442C18.0252 4.91163 16.5854 5.77365 15.5318 6.46574L15.3495 6.59242C15.7976 6.29581 16.3877 5.89724 16.8419 5.61299Z" fill="#69A2CD"/>
<path d="M48.573 7.16084C49.7378 7.56559 51.295 8.10628 52.4598 8.51412C53.2044 7.91163 54.1962 7.10522 54.9316 6.49037C54.363 5.39662 53.7729 4.38012 53.1642 3.44394C52.1014 3.11952 50.6863 2.68388 49.6235 2.36255C48.9901 2.87235 48.1435 3.5459 47.5039 4.04334C47.8654 5.00423 48.2207 6.04546 48.573 7.16084Z" fill="#3A6AB9"/>
<path d="M30.2975 12.0673C31.348 12.4628 32.7507 12.9881 33.8043 13.3743C34.6941 12.7224 35.8806 11.8542 36.7673 11.1991C36.4738 10.0776 36.1772 9.02709 35.8837 8.05693C34.9413 7.74487 33.6869 7.32776 32.7476 7.00952C31.9629 7.55949 30.9124 8.28865 30.1214 8.83244C30.1647 9.83659 30.2234 10.918 30.2975 12.0673Z" fill="#274082"/>
<path d="M22.4774 13.3124C23.3518 13.711 24.5259 14.2362 25.4096 14.6162C26.3828 13.9241 27.6805 13.0003 28.6568 12.3113C28.6352 11.1527 28.6383 10.062 28.663 9.04862C27.8937 8.73656 26.871 8.31945 26.1109 7.99194C25.2242 8.5759 24.0439 9.35141 23.1634 9.93845C22.8976 10.992 22.669 12.1198 22.4774 13.3124Z" fill="#3881B6"/>
<path d="M15.4825 14.644C16.1282 15.0611 16.9995 15.6018 17.6638 15.9881C18.6494 15.2589 19.9687 14.2949 20.9636 13.5781C21.2046 12.3762 21.4888 11.2392 21.8132 10.1763C21.2602 9.85811 20.5217 9.42555 19.9872 9.07642C19.0665 9.68509 17.8461 10.5039 16.9346 11.1249C16.3939 12.231 15.9088 13.4051 15.4825 14.644Z" fill="#3A6AB9"/>
<path d="M9.81595 15.9819C10.1836 16.4268 10.6934 16.9984 11.1043 17.4001C12.0251 16.6462 13.261 15.6513 14.1971 14.9191C14.6698 13.6708 15.2013 12.4844 15.7945 11.3721C15.4763 11.0353 15.0653 10.5719 14.7996 10.1949C13.9191 10.8222 12.7542 11.6656 11.8922 12.3176C11.1291 13.4731 10.437 14.6997 9.81595 15.9819Z" fill="#689AC5"/>
<path d="M6.08368 17.2085C6.10222 17.6782 6.16401 18.3054 6.27833 18.7595C7.04148 17.9933 8.07344 16.983 8.86749 16.2507C9.51941 14.9561 10.2486 13.7203 11.0488 12.5555C10.9901 12.1723 10.9469 11.6533 10.9808 11.2701C10.2455 11.8973 9.27533 12.747 8.57088 13.4082C7.65942 14.6132 6.82829 15.883 6.08368 17.2085Z" fill="#689AC5"/>
<path d="M3.92084 19.8686C4.40901 19.1209 5.08256 18.1384 5.62326 17.4277C6.38641 16.093 7.23298 14.8139 8.16298 13.5996C8.4256 13.1516 8.80255 12.5615 9.11769 12.1475L8.61099 12.7191L7.42455 14.1836C5.33283 17.1342 5.29266 17.1898 4.38429 18.8459V18.8521C4.24525 19.1549 4.03516 19.5534 3.92084 19.8686Z" fill="#274082"/>
<path d="M41.8498 25.5227C43.1846 26.0912 44.9581 26.8575 46.2835 27.4414C47.3278 26.6165 48.7182 25.5135 49.7594 24.6854C49.4227 23.1344 49.0426 21.6359 48.6286 20.1961C47.3278 19.6678 45.5945 18.9664 44.2876 18.4504C43.2989 19.2198 41.9765 20.2425 40.9847 21.0056C41.2875 22.4578 41.5779 23.9655 41.8498 25.5227Z" fill="#69A2CD"/>
<path d="M31.7311 26.8546C33.0381 27.3953 34.7776 28.1244 36.0814 28.6713C37.1906 27.8 38.6675 26.6383 39.7798 25.7701C39.5233 24.2129 39.2576 22.702 38.9827 21.2468C37.719 20.7524 36.032 20.0912 34.7652 19.6C33.6962 20.4064 32.2718 21.4816 31.2059 22.2942C31.3666 23.7618 31.5396 25.285 31.7311 26.8546Z" fill="#4186B9"/>
<path d="M13.3011 30.0586C14.33 30.59 15.7049 31.2883 16.743 31.8012C17.7472 30.8712 19.0943 29.6415 20.12 28.7331C20.0273 27.1481 19.981 25.6063 19.9872 24.1078C19.0016 23.6413 17.6884 23.011 16.7121 22.5228C15.708 23.3725 14.3794 24.5157 13.3969 25.3901C13.298 26.904 13.264 28.4643 13.3011 30.0586Z" fill="#69A2CD"/>
<path d="M6.25354 31.7238C7.03214 32.2676 8.08264 32.9813 8.88596 33.4942C9.71708 32.5519 10.8386 31.3098 11.7038 30.4014C11.679 28.8041 11.7316 27.2407 11.8551 25.7206C11.1013 25.2478 10.1033 24.6083 9.37413 24.1016C8.52446 24.9574 7.40599 26.1099 6.59032 26.9997C6.3864 28.5353 6.27517 30.1141 6.25354 31.7238Z" fill="#3881B6"/>
<path d="M1.60971 33.2503C2.02991 33.8342 2.62004 34.5912 3.10203 35.1226C3.66744 34.1864 4.44914 32.9537 5.07325 32.0546C5.10415 30.4448 5.23083 28.8629 5.44711 27.3181C4.98365 26.833 4.37807 26.1625 3.97641 25.6218C3.38937 26.4622 2.62622 27.5961 2.10097 28.4736C1.83526 30.0339 1.66841 31.6282 1.60971 33.2503Z" fill="#3881B6"/>
<mask id="mask1_138_10548" style="mask-type:luminance" maskUnits="userSpaceOnUse" x="0" y="26" width="3" height="11">
<path d="M0 26.697H2.22149V36.9795H0V26.697Z" fill="white"/>
</mask>
<g mask="url(#mask1_138_10548)">
<path d="M0.0309143 34.412C0.0649011 35.0269 0.148322 35.8487 0.278089 36.4543C0.46965 35.5645 0.760081 34.3842 1.04124 33.5191C1.10304 31.897 1.27606 30.2965 1.55104 28.7332C1.44599 28.177 1.34403 27.4293 1.33785 26.8639C1.09686 27.6054 0.787888 28.5972 0.617955 29.3573L0.614866 29.3727C0.457291 30.4448 0.228655 31.8785 0.123605 32.9568L0.0309143 34.412Z" fill="#69A2CD"/>
</g>
<path d="M34.2338 44.2835C35.4882 44.8088 37.1597 45.5163 38.411 46.0508C39.4893 45.2042 40.9322 44.0765 42.0167 43.2361C41.8746 41.6727 41.7108 40.0723 41.5285 38.4502C40.2216 37.8662 38.4759 37.0969 37.1659 36.5222C36.0567 37.4213 34.5798 38.6232 33.4768 39.5316C33.724 41.1475 33.9773 42.7325 34.2338 44.2835Z" fill="#69A2CD"/>
<path d="M48.0416 37.9094C49.296 38.41 50.9706 39.0773 52.225 39.5748C53.1921 38.7066 54.4897 37.5572 55.4754 36.7076C55.188 35.1627 54.913 33.5777 54.6473 31.9649C53.3466 31.4211 51.6163 30.6919 50.3156 30.142C49.3022 31.0565 47.9581 32.28 46.9602 33.21C47.2877 34.8136 47.6492 36.3831 48.0416 37.9094Z" fill="#274082"/>
<path d="M16.4155 47.3823C17.5896 47.8642 19.1622 48.5038 20.3425 48.9765C21.1304 48.1022 22.1932 46.9497 23.0089 46.1C22.5887 44.5768 22.2056 43.0103 21.8626 41.4099C20.6484 40.8908 19.0294 40.1895 17.8213 39.6519C16.9747 40.5664 15.8563 41.7961 15.0406 42.7354C15.4392 44.3235 15.8995 45.8776 16.4155 47.3823Z" fill="#69A2CD"/>
<path d="M9.59963 48.9921C10.6161 49.471 11.9725 50.1013 12.9983 50.5555C13.539 49.6903 14.2836 48.5472 14.8706 47.7129C14.333 46.2114 13.8541 44.6665 13.4432 43.0784C12.3927 42.5717 10.9962 41.8827 9.96112 41.3451C9.34936 42.2504 8.55222 43.4677 7.9899 44.4039C8.44717 45.9765 8.98478 47.509 9.59963 48.9921Z" fill="#3881B6"/>
<path d="M5.11031 50.4658C5.84257 50.9695 6.83127 51.6214 7.59751 52.0787C7.81997 51.2383 8.15366 50.126 8.45954 49.3134C7.82924 47.8334 7.27619 46.3071 6.80964 44.7345C6.00632 44.2278 4.94656 43.5326 4.17723 42.9764C3.89297 43.8508 3.54075 45.028 3.3461 45.9302C3.83736 47.4905 4.43058 49.0075 5.11031 50.4658Z" fill="#69A2CD"/>
<path d="M3.58403 51.5907C3.96716 52.1283 4.51094 52.8327 4.95586 53.3209C4.79828 52.5516 4.62217 51.5134 4.55729 50.7286C3.87138 49.2703 3.27197 47.7594 2.77454 46.1992C2.32035 45.6523 1.7364 44.9015 1.35019 44.3052C1.4367 45.1456 1.585 46.264 1.76421 47.0921C2.27092 48.6431 2.87958 50.1478 3.58403 51.5907Z" fill="#69A2CD"/>
<path d="M44.3124 58.2149C45.0848 58.6505 46.1137 59.2407 46.8737 59.7072C47.8037 59.0738 49.0458 58.2365 49.982 57.6155C50.2909 56.3642 50.5566 55.051 50.7853 53.6854C49.8924 53.1447 48.6966 52.4372 47.7883 51.9274C46.7749 52.6534 45.4247 53.6236 44.4174 54.359C44.4051 55.703 44.3711 56.9914 44.3124 58.2149Z" fill="#3881B6"/>
<path d="M37.0546 59.1697C37.9784 59.5682 39.2081 60.1058 40.1258 60.5199C40.9291 59.8772 42.0105 59.0244 42.8262 58.3942C42.82 57.1768 42.7953 55.8977 42.7489 54.5598C41.7077 54.0717 40.3112 53.4259 39.2607 52.9563C38.3585 53.6916 37.1566 54.6803 36.2698 55.4311C36.5325 56.7381 36.7951 57.9863 37.0546 59.1697Z" fill="#274082"/>
<path d="M30.0812 60.2788C31.0977 60.6433 32.4541 61.1315 33.4706 61.5054C34.0947 60.8596 34.9413 60.0099 35.5901 59.3889C35.2688 58.2148 34.9444 56.9728 34.6261 55.6751C33.4953 55.2302 31.9876 54.637 30.8536 54.1982C30.1183 54.9336 29.1481 55.9192 28.4375 56.6762C28.9658 57.9429 29.5158 59.1448 30.0812 60.2788Z" fill="#3881B6"/>
<path d="M18.7884 62.6609C19.7894 62.9822 21.1273 63.4024 22.1314 63.7114C22.2704 63.1027 22.4898 62.2994 22.6968 61.7154C21.807 60.6433 20.9542 59.497 20.1447 58.289C19.0603 57.9027 17.6112 57.3837 16.5298 56.9851C16.2703 57.6865 15.9459 58.6288 15.7574 59.3518C16.7121 60.5259 17.7255 61.632 18.7884 62.6609Z" fill="#3881B6"/>
<path d="M15.4608 63.7547C16.3105 64.0792 17.4475 64.4932 18.3064 64.7867C18.1612 64.2305 18.0006 63.4736 17.9419 62.8989C16.845 61.8824 15.7945 60.7855 14.8058 59.6207C13.8697 59.25 12.6214 58.7463 11.6976 58.3478C11.7532 59.0213 11.8644 59.9235 12.0189 60.5816C13.1003 61.7155 14.2497 62.7753 15.4608 63.7547Z" fill="#69A2CD"/>
<path d="M14.3269 64.5888C14.951 64.9287 15.7945 65.3644 16.4402 65.6671C15.9984 65.1728 15.4299 64.4931 15.0499 63.9493C13.8233 62.976 12.6585 61.9224 11.5585 60.7978C10.8819 60.4147 9.98587 59.8863 9.33704 59.46C9.73252 60.0933 10.2856 60.9276 10.7459 61.5177C11.8706 62.6176 13.0694 63.6434 14.3269 64.5888Z" fill="#69A2CD"/>
<path d="M41.4142 65.2316C41.8066 65.4293 42.3257 65.7012 42.6995 65.9268C43.0487 65.6116 43.5214 65.1976 43.8891 64.901C44.0219 64.2522 44.1362 63.5076 44.2289 62.6795C43.6759 62.352 42.9313 61.9287 42.3658 61.629C41.8684 62.077 41.2134 62.6795 40.7407 63.1492C40.9724 63.9308 41.1979 64.6291 41.4142 65.2316Z" fill="#274082"/>
<path d="M36.1958 68.2286C36.8971 68.3645 37.8302 68.5499 38.5285 68.689C38.4234 68.4387 38.3153 68.0896 38.2937 67.8208C37.5707 67.3017 36.857 66.6837 36.1525 65.9762C35.3152 65.7321 34.1998 65.4077 33.3625 65.1698C33.2822 65.5807 33.1988 66.1338 33.1957 66.5478C34.1782 67.2028 35.1793 67.7651 36.1958 68.2286Z" fill="#69A2CD"/>
<path d="M30.4118 70.9692C31.212 71.0557 32.278 71.1669 33.0782 71.238C32.59 71.0711 31.9443 70.827 31.4777 70.6015C30.1028 70.2245 28.7557 69.7456 27.4364 69.174C26.559 68.9918 25.3849 68.7446 24.5105 68.5499C24.9183 68.9176 25.4837 69.3811 25.9348 69.69C27.3932 70.2153 28.8886 70.6447 30.4118 70.9692Z" fill="#3881B6"/>
<path d="M29.9267 71.3245C30.6714 71.4049 31.6601 71.5006 32.4047 71.5562C31.7497 71.4234 30.8815 71.2287 30.2388 71.0526C28.6878 70.7375 27.1707 70.3204 25.6877 69.8075C24.9184 69.6345 23.8926 69.3966 23.1294 69.2019C23.7566 69.5171 24.6032 69.9218 25.249 70.1937C26.7722 70.6726 28.3356 71.0526 29.9267 71.3245Z" fill="#274082"/>
<mask id="mask2_138_10548" style="mask-type:luminance" maskUnits="userSpaceOnUse" x="32" y="71" width="2" height="1">
<path d="M32.278 71.7817H33.8599V71.8899H32.278V71.7817Z" fill="white"/>
</mask>
<g mask="url(#mask2_138_10548)">
<path d="M33.1833 71.896L32.7538 71.8589L33.0535 71.8836L33.1833 71.896Z" fill="#69A2CD"/>
</g>
<path d="M39.616 5.34411C40.6542 5.6469 42.0383 6.05165 43.0765 6.36061C43.4998 5.93733 44.0528 5.36573 44.4421 4.91155C43.6388 4.12677 42.8139 3.43159 41.9642 2.8291C41.062 2.619 39.857 2.34093 38.9517 2.14319C38.6675 2.46761 38.2813 2.8878 37.9754 3.1875C38.5285 3.81471 39.0784 4.53461 39.616 5.34411Z" fill="#3881B6"/>
<path d="M33.2204 6.09497C34.1349 6.39467 35.3553 6.78706 36.2699 7.08367C36.8909 6.60786 37.7128 5.9683 38.3214 5.48013C37.8549 4.66445 37.3822 3.93528 36.9064 3.30189C36.1278 3.10106 35.0958 2.83226 34.3172 2.63452C33.8321 2.99293 33.1802 3.46256 32.6859 3.81169C32.8558 4.48216 33.0319 5.2484 33.2204 6.09497Z" fill="#274082"/>
<path d="M26.8772 7.01871C27.6156 7.32458 28.6012 7.72316 29.3459 8.01359C30.1152 7.49143 31.1379 6.79625 31.9041 6.27409C31.7898 5.41516 31.6878 4.63964 31.5982 3.95682C30.9988 3.75599 30.2017 3.48101 29.6085 3.26782C28.9566 3.66021 28.0884 4.18237 27.4395 4.57476C27.2263 5.30084 27.0379 6.11961 26.8772 7.01871Z" fill="#69A2CD"/>
<path d="M20.9851 8.04147C21.5042 8.36898 22.2025 8.78918 22.737 9.08579C23.6021 8.52347 24.7546 7.77885 25.6228 7.22271C25.8514 6.31125 26.1109 5.48321 26.4014 4.74169C26.0059 4.5285 25.4868 4.23807 25.1099 3.99707C24.3467 4.42036 23.3271 4.98886 22.564 5.42142C21.9955 6.20929 21.4702 7.08676 20.9851 8.04147Z" fill="#3881B6"/>
<path d="M15.946 9.10421C16.2055 9.45643 16.5732 9.91061 16.879 10.2258C17.772 9.62945 18.9677 8.84158 19.8729 8.25763C20.4167 7.29365 21.01 6.40382 21.6433 5.6005C21.4672 5.36568 21.2417 5.04126 21.1243 4.77246C20.3024 5.22356 19.2118 5.83222 18.3961 6.29877C17.5248 7.15461 16.706 8.09079 15.946 9.10421Z" fill="#3A6AB9"/>
<path d="M12.1672 10.1363C12.1394 10.504 12.1394 10.9983 12.2012 11.3598C13.0509 10.7388 14.1909 9.92004 15.0561 9.32064C15.8656 8.29487 16.7369 7.34633 17.6607 6.47813C17.7132 6.19079 17.8152 5.80767 17.9418 5.54504C17.1354 6.01777 16.0633 6.65733 15.2692 7.15168C14.1693 8.06932 13.1312 9.06729 12.1672 10.1363Z" fill="#3881B6"/>
<path d="M10.2022 10.9951C9.89011 11.3968 9.49154 11.9467 9.23819 12.3855C9.93337 11.7552 10.8757 10.9302 11.6018 10.3308C12.5998 9.25252 13.6688 8.24219 14.8027 7.31529C15.124 6.97542 15.569 6.53977 15.9243 6.24316C15.2322 6.71589 14.3145 7.35854 13.6472 7.86216C12.4267 8.83232 11.2774 9.87973 10.2022 10.9951Z" fill="#3A6AB9"/>
<path d="M44.8252 17.1281C46.1198 17.6348 47.8438 18.3146 49.1322 18.8367C49.9665 18.1446 51.0664 17.2116 51.879 16.4947C51.3259 15.16 50.7265 13.8932 50.0931 12.6944C48.8789 12.2372 47.2599 11.6378 46.0364 11.2052C45.2887 11.8355 44.2814 12.6666 43.5214 13.2846C43.9755 14.4957 44.4143 15.781 44.8252 17.1281Z" fill="#3881B6"/>
<mask id="mask3_138_10548" style="mask-type:luminance" maskUnits="userSpaceOnUse" x="57" y="0" width="11" height="9">
<path d="M57.5888 0.110107H67.0803V8.50479H57.5888V0.110107Z" fill="white"/>
</mask>
<g mask="url(#mask3_138_10548)">
<path d="M58.905 6.26782C60.1625 6.74981 61.8371 7.39247 63.0915 7.87755C64.074 7.12675 65.384 6.1226 66.3604 5.36563C65.9865 4.01544 65.5941 2.72704 65.1863 1.5097C64.006 1.0895 62.4303 0.530267 61.25 0.113159C60.3478 0.786712 59.1459 1.67963 58.2376 2.347C58.4569 3.58906 58.6794 4.89909 58.905 6.26782Z" fill="#274082"/>
</g>
<path d="M26.2098 19.5752C27.3561 20.0448 28.8855 20.672 30.0349 21.1355C31.0915 20.3384 32.5004 19.2786 33.5571 18.4876C33.3717 17.1127 33.1925 15.7996 33.0226 14.5514C31.9567 14.1466 30.5323 13.609 29.4695 13.2012C28.4808 13.9087 27.1615 14.8542 26.1758 15.5648C26.1573 16.8408 26.1697 18.1787 26.2098 19.5752Z" fill="#69A2CD"/>
<path d="M17.5989 21.0737C18.569 21.5464 19.8667 22.1706 20.8431 22.6247C21.8997 21.7936 23.3086 20.6906 24.3746 19.8718C24.3715 18.4722 24.4024 17.1251 24.4673 15.8398C23.5712 15.4443 22.3817 14.9098 21.495 14.4927C20.4877 15.228 19.1499 16.2136 18.1519 16.9582C17.9171 18.2745 17.7317 19.6463 17.5989 21.0737Z" fill="#4186B9"/>
<path d="M10.2362 22.6248C10.9623 23.1161 11.9448 23.7526 12.6925 24.2098C13.6688 23.354 14.9788 22.2232 15.9737 21.389C16.1375 19.9584 16.3599 18.5773 16.638 17.2549C15.9645 16.8502 15.0746 16.3033 14.4227 15.8677C13.4773 16.6216 12.2198 17.6319 11.2898 18.4074C10.8665 19.7607 10.5142 21.1696 10.2362 22.6248Z" fill="#274082"/>
<path d="M4.70865 24.1354C5.12885 24.6514 5.71589 25.3219 6.18552 25.7915C6.99811 24.9233 8.09186 23.777 8.93534 22.9397C9.24122 21.4783 9.62434 20.0632 10.0816 18.7007C9.67069 18.2805 9.13926 17.7027 8.77777 17.2393C7.97445 17.9993 6.91469 19.022 6.14226 19.813C5.57685 21.2033 5.09795 22.6462 4.70865 24.1354Z" fill="#274082"/>
<path d="M1.84146 25.3901C1.86618 25.94 1.94342 26.6754 2.06392 27.2161C2.58608 26.3602 3.30597 25.2356 3.88684 24.4199C4.29158 22.9276 4.78903 21.4785 5.37607 20.0789C5.28338 19.6031 5.19686 18.9573 5.20304 18.4753C4.66235 19.2107 3.9579 20.2087 3.46973 20.9811C2.83016 22.4054 2.28638 23.8761 1.84146 25.3901Z" fill="#69A2CD"/>
<path d="M61.2469 26.666C62.5013 27.2902 64.1728 28.1244 65.4149 28.767C66.487 27.939 67.9083 26.8267 68.9587 25.977C68.8784 25.1428 68.7795 24.3086 68.6652 23.4744C68.5478 22.6371 68.4181 21.809 68.2728 20.9965C67.0153 20.3507 65.3315 19.5072 64.0554 18.8986C63.008 19.7359 61.6115 20.8512 60.561 21.6855C60.6938 22.5011 60.8174 23.3292 60.9317 24.1665C61.0491 25.0038 61.1511 25.838 61.2469 26.666Z" fill="#3A6AB9"/>
<path d="M27.8227 36.4512C29.1296 37.0073 30.8691 37.7488 32.176 38.3019C33.2791 37.3874 34.7528 36.17 35.862 35.2616C35.7477 34.4336 35.6334 33.5994 35.516 32.7652C35.4017 31.9248 35.2874 31.0998 35.1761 30.2811C33.8692 29.7249 32.1235 28.9865 30.8166 28.4365C29.7074 29.3387 28.2336 30.553 27.1367 31.4706C27.2356 32.2925 27.3438 33.1205 27.4612 33.9578C27.5755 34.7951 27.696 35.6262 27.8227 36.4512Z" fill="#3A6AB9"/>
<path d="M18.4084 38.0886C19.6226 38.6324 21.2447 39.3492 22.4651 39.8775C23.4631 38.9382 24.804 37.6962 25.8174 36.7755C25.6877 35.9505 25.5641 35.1194 25.4498 34.2821C25.3324 33.4448 25.2273 32.6167 25.1315 31.7949C23.9235 31.2634 22.3106 30.5497 21.1057 30.009C20.0799 30.9298 18.7235 32.1656 17.7194 33.108C17.8059 33.9298 17.9047 34.761 18.0191 35.5983C18.1365 36.4356 18.2662 37.2667 18.4084 38.0886Z" fill="#69A2CD"/>
<path d="M10.3536 39.788C11.3979 40.3287 12.7975 41.0393 13.8542 41.5522C14.6761 40.6067 15.7791 39.3554 16.6287 38.4347C16.4835 37.6128 16.3538 36.7817 16.2363 35.9475C16.122 35.1102 16.0232 34.2791 15.9428 33.4541C14.9047 32.9319 13.5236 32.2275 12.4947 31.6837C11.6327 32.6075 10.4957 33.8527 9.66766 34.8074C9.73873 35.6323 9.83142 36.4635 9.94574 37.3008C10.0631 38.1381 10.1991 38.9661 10.3536 39.788Z" fill="#689AC5"/>
<path d="M4.31015 41.4379C5.09802 41.9909 6.16087 42.7139 6.97964 43.2206C7.54505 42.2813 8.31747 41.0424 8.93232 40.134C8.77475 39.3121 8.63571 38.4841 8.52139 37.6468C8.40708 36.8095 8.31438 35.9784 8.24641 35.1503C7.44927 34.6282 6.3926 33.9145 5.62018 33.3552C4.99606 34.2698 4.18656 35.5026 3.62424 36.4573C3.68603 37.2853 3.77254 38.1195 3.88995 38.9568C4.00427 39.791 4.14639 40.6191 4.31015 41.4379Z" fill="#689AC5"/>
<mask id="mask4_138_10548" style="mask-type:luminance" maskUnits="userSpaceOnUse" x="0" y="34" width="4" height="11">
<path d="M0 34.6066H3.80341V44.8891H0V34.6066Z" fill="white"/>
</mask>
<g mask="url(#mask4_138_10548)">
<path d="M1.17099 42.8096C1.57883 43.4059 2.15042 44.1815 2.62623 44.7252C2.82397 43.8231 3.12367 42.6273 3.41101 41.7499C3.24417 40.9311 3.10204 40.1062 2.98772 39.2688C2.87032 38.4315 2.78381 37.5973 2.72201 36.7693C2.25856 36.2162 1.66225 35.4624 1.26677 34.8599C0.994875 35.7404 0.667368 36.9238 0.485077 37.8291C0.540691 38.6602 0.627202 39.4944 0.74152 40.3317C0.858929 41.169 1.00105 41.994 1.17099 42.8096Z" fill="#274082"/>
</g>
<mask id="mask5_138_10548" style="mask-type:luminance" maskUnits="userSpaceOnUse" x="62" y="37" width="8" height="11">
<path d="M62.3345 37.7704H70V47.2619H62.3345V37.7704Z" fill="white"/>
</mask>
<g mask="url(#mask5_138_10548)">
<path d="M62.7547 45.3742C63.6785 45.9025 64.902 46.6193 65.8073 47.1786C66.864 46.4649 68.2729 45.507 69.3265 44.7841C69.5953 43.335 69.8116 41.8365 69.9691 40.304C68.9773 39.6768 67.6426 38.858 66.623 38.271C65.5107 39.0712 64.0277 40.1372 62.9185 40.9374C62.8999 42.4575 62.8443 43.9375 62.7547 45.3742Z" fill="#69A2CD"/>
</g>
<path d="M52.8152 48.5905C53.8842 49.0756 55.3054 49.7337 56.3621 50.2404C57.3817 49.4896 58.7381 48.4917 59.7639 47.7501C59.8071 46.3196 59.8195 44.8427 59.7979 43.3288C58.6392 42.7603 57.0913 42.0126 55.9265 41.4657C54.8482 42.2906 53.4146 43.3937 52.3424 44.2279C52.5124 45.7264 52.6699 47.1816 52.8152 48.5905Z" fill="#689AC5"/>
<path d="M31.3295 52.9747C32.482 53.4258 34.0113 54.0314 35.1607 54.4917C36.0598 53.7255 37.2648 52.709 38.1762 51.9582C37.9816 50.5586 37.7808 49.1064 37.5738 47.6141C36.3348 47.095 34.6849 46.3999 33.4459 45.887C32.4727 46.7243 31.1812 47.8489 30.2234 48.7017C30.5787 50.1755 30.9464 51.5998 31.3295 52.9747Z" fill="#3A6AB9"/>
<path d="M23.3087 54.3683C24.4704 54.7946 26.0214 55.3601 27.1862 55.7864C27.9061 55.014 28.8763 53.9975 29.6209 53.2498C29.1914 51.8842 28.7805 50.466 28.3881 49.0015C27.1491 48.5164 25.4931 47.8676 24.2541 47.3794C23.4508 48.2136 22.3879 49.3383 21.6124 50.2003C22.1408 51.6432 22.7062 53.0335 23.3087 54.3683Z" fill="#3881B6"/>
<path d="M16.4464 55.8172C17.5433 56.225 19.0109 56.7626 20.1139 57.1612C20.599 56.398 21.2633 55.397 21.7916 54.6647C21.1489 53.3361 20.5465 51.952 19.9872 50.5183C18.8193 50.0549 17.2652 49.437 16.1035 48.9642C15.5288 49.7892 14.778 50.8984 14.2497 51.7542C14.9232 53.1631 15.6555 54.5195 16.4464 55.8172Z" fill="#3881B6"/>
<path d="M8.62337 58.3909C9.29383 58.8203 10.196 59.3796 10.8912 59.7689C10.7429 59.0922 10.5822 58.1777 10.5297 57.4856C9.57808 56.2374 8.70061 54.9212 7.90038 53.5462C7.15886 53.0921 6.18251 52.471 5.47498 51.9674C5.54913 52.7367 5.68507 53.7625 5.85501 54.5164C6.6954 55.8728 7.61922 57.1643 8.62337 58.3909Z" fill="#69A2CD"/>
<path d="M9.85609 60.6928C9.39572 60.081 8.79941 59.2437 8.40393 58.5887C7.3936 57.3683 6.46361 56.0799 5.61703 54.7297C5.19375 54.2415 4.64378 53.5711 4.28229 53.0334L4.57272 53.5834L4.65305 53.7286C6.62118 56.9017 6.62118 56.9017 7.79835 58.3786L9.19798 60.0316L9.85609 60.6928Z" fill="#3881B6"/>
<path d="M26.7722 67.0793C27.6836 67.311 28.901 67.6169 29.8155 67.8424C29.8433 67.4006 29.9175 66.8105 30.0194 66.381C29.1605 65.5715 28.3232 64.6755 27.5106 63.7023C26.4879 63.384 25.1223 62.9607 24.0996 62.6394C23.9173 63.2048 23.6979 63.9649 23.5867 64.5488C24.6125 65.4757 25.6753 66.3223 26.7722 67.0793Z" fill="#69A2CD"/>
<path d="M23.6423 67.9351C24.5383 68.1451 25.734 68.417 26.6301 68.6179C26.423 68.2255 26.1697 67.6848 26.0368 67.2584C24.8875 66.5138 23.7721 65.6796 22.6969 64.765C21.7113 64.4715 20.4012 64.0791 19.4218 63.7794C19.4991 64.3263 19.6381 65.0524 19.8049 65.5807C21.0377 66.4489 22.3199 67.2368 23.6423 67.9351Z" fill="#689AC5"/>
<path d="M22.0202 68.6457C22.7958 68.8558 23.8339 69.1246 24.6156 69.3131C24.1645 68.9701 23.5805 68.4943 23.1789 68.0957C21.8225 67.4098 20.5063 66.6343 19.2426 65.7754C18.4022 65.4942 17.2868 65.1111 16.4588 64.8021C16.8481 65.3119 17.395 65.9762 17.8399 66.4397C19.1839 67.2615 20.5774 68 22.0202 68.6457Z" fill="#69A2CD"/>
<path d="M21.98 69.1461C22.5918 69.3686 23.4106 69.6466 24.0316 69.8351C23.3797 69.5323 22.5145 69.1121 21.8843 68.7661C20.4352 68.1296 19.0294 67.4004 17.6792 66.5817C17.0489 66.2943 16.2116 65.8957 15.5998 65.5682C16.2023 66.0008 17.0118 66.5631 17.639 66.9555L18.5721 67.49C19.6751 68.1018 20.8121 68.6548 21.98 69.1461Z" fill="#689AC5"/>
<path d="M13.2764 28.8566C15.2229 28.8566 16.7616 29.3416 17.8924 30.3149C19.0263 31.2882 19.5948 32.6785 19.5948 34.4891H15.5659C15.5659 33.7228 15.365 33.1203 14.9634 32.6754C14.5617 32.2305 13.9932 32.0081 13.2517 32.0081C12.402 32.0081 11.7748 32.2769 11.3732 32.8114C10.9715 33.3459 10.7707 34.0905 10.7707 35.0452V36.2656C10.7707 37.208 10.9715 37.9495 11.3732 38.4902C11.7748 39.0309 12.3866 39.3028 13.2146 39.3028C14.0303 39.3028 14.6482 39.0927 15.0653 38.6725C15.4886 38.2523 15.7018 37.6591 15.7018 36.8959H19.5948C19.5948 38.691 19.0449 40.069 17.9449 41.0238C16.8419 41.9785 15.2878 42.4543 13.2764 42.4543C11.0333 42.4543 9.33706 41.8827 8.1846 40.7395C7.02906 39.5901 6.45438 37.897 6.45438 35.6539C6.45438 33.4139 7.02906 31.7207 8.1846 30.5775C9.33706 29.4282 11.0333 28.8566 13.2764 28.8566ZM34.3388 33.1142C34.3388 33.9144 34.1195 34.6405 33.6838 35.2924C33.2543 35.9412 32.624 36.417 31.796 36.7229L34.7219 42.2257H29.9824L27.6496 37.4305H26.0832V42.2257H21.8627V29.0852H29.9082C30.8506 29.0852 31.6539 29.2644 32.3243 29.629C32.9917 29.9905 33.4953 30.4787 33.829 31.0997C34.1689 31.7176 34.3388 32.3881 34.3388 33.1142ZM30.038 33.2872C30.038 32.9411 29.9237 32.6538 29.6919 32.4282C29.4664 32.1965 29.1852 32.0822 28.8546 32.0822H26.0832V34.5076H28.8546C29.1852 34.5076 29.4664 34.3902 29.6919 34.1585C29.9237 33.9206 30.038 33.6301 30.038 33.2872ZM44.093 29.0852C44.9056 29.0852 45.6316 29.2706 46.2681 29.6475C46.9077 30.0245 47.402 30.5404 47.7573 31.1955C48.1157 31.8536 48.2949 32.5889 48.2949 33.4015V33.6487C48.2949 34.4644 48.1157 35.2028 47.7573 35.864C47.402 36.5283 46.9077 37.0473 46.2681 37.4212C45.6316 37.7981 44.9056 37.9866 44.093 37.9866H40.9384V42.2257H36.7179V29.0852H44.093ZM40.9384 34.9093H42.6779C43.1228 34.9093 43.4565 34.795 43.682 34.5694C43.9045 34.3377 44.0157 34.0256 44.0157 33.6301V33.4757C44.0157 33.0709 43.9045 32.7558 43.682 32.5364C43.4565 32.3108 43.1228 32.1996 42.6779 32.1996H40.9384V34.9093ZM49.951 35.6539C49.951 33.4262 50.5628 31.7362 51.7925 30.5868C53.0222 29.4312 54.7709 28.8566 57.0388 28.8566C59.3035 28.8566 61.0554 29.4343 62.2882 30.5961C63.5271 31.7516 64.1451 33.4386 64.1451 35.6539C64.1451 37.1308 63.867 38.3759 63.3108 39.3893C62.7578 40.3996 61.9514 41.1659 60.8947 41.688L63.8948 44.7314H58.871L56.8472 42.4543C54.6288 42.4172 52.9264 41.8209 51.7369 40.6685C50.5442 39.516 49.951 37.8445 49.951 35.6539ZM59.8257 35.0452C59.8257 34.1152 59.5878 33.3768 59.1089 32.8299C58.6331 32.283 57.9441 32.0081 57.0388 32.0081C56.1335 32.0081 55.4445 32.283 54.9718 32.8299C54.5021 33.3768 54.2673 34.1152 54.2673 35.0452V36.2656C54.2673 37.1956 54.5021 37.9341 54.9718 38.481C55.4445 39.0278 56.1335 39.3028 57.0388 39.3028C57.9441 39.3028 58.6331 39.0278 59.1089 38.481C59.5878 37.9341 59.8257 37.1956 59.8257 36.2656V35.0452Z" stroke="#F4F5F7" stroke-width="1.43274"/>
<path d="M13.2697 28.8536C15.2224 28.8536 16.7611 29.3418 17.8919 30.312C19.0289 31.2852 19.5974 32.6787 19.5974 34.4892H15.5685C15.5685 33.723 15.3645 33.1174 14.9629 32.6725C14.5674 32.2276 13.9989 32.0051 13.2574 32.0051C12.3984 32.0051 11.7681 32.2739 11.3665 32.8084C10.971 33.346 10.7733 34.0907 10.7733 35.0454V36.2689C10.7733 37.2082 10.971 37.9497 11.3665 38.4935C11.7681 39.0311 12.3861 39.2968 13.2203 39.2968C14.036 39.2968 14.6539 39.0867 15.0741 38.6665C15.4943 38.2463 15.7044 37.6593 15.7044 36.8992H19.5974C19.5974 38.6974 19.0444 40.0723 17.9413 41.027C16.8445 41.9848 15.2873 42.4606 13.2697 42.4606C11.0266 42.4606 9.33037 41.889 8.17792 40.7428C7.03164 39.5903 6.46005 37.8941 6.46005 35.651C6.46005 33.4109 7.03164 31.7178 8.17792 30.5715C9.33037 29.4283 11.0266 28.8536 13.2697 28.8536Z" fill="#004AAD"/>
<path d="M34.3415 33.1174C34.3415 33.9176 34.1222 34.6437 33.6865 35.2925C33.2571 35.9444 32.6268 36.4233 31.7956 36.7261L34.7247 42.2258H29.9789L27.6554 37.4306H26.0859V42.2258H21.8592V29.076H29.9047C30.8502 29.076 31.6597 29.2583 32.3271 29.6198C32.9944 29.9844 33.495 30.4726 33.8348 31.0905C34.1716 31.7085 34.3415 32.3851 34.3415 33.1174ZM30.0407 33.278C30.0407 32.9413 29.9233 32.657 29.6946 32.4253C29.4629 32.1966 29.1818 32.0792 28.8542 32.0792H26.0859V34.5015H28.8542C29.1818 34.5015 29.4629 34.3872 29.6946 34.1555C29.9233 33.9176 30.0407 33.6241 30.0407 33.278Z" fill="#004AAD"/>
<path d="M44.0927 29.076C44.9083 29.076 45.6313 29.2676 46.2678 29.6446C46.9105 30.0246 47.4079 30.5437 47.7632 31.2018C48.1154 31.8537 48.2946 32.5859 48.2946 33.4016V33.6488C48.2946 34.4645 48.1154 35.206 47.7632 35.8734C47.4079 36.5346 46.9105 37.0536 46.2678 37.4306C45.6313 37.8013 44.9083 37.9867 44.0927 37.9867H40.9412V42.2258H36.7145V29.076H44.0927ZM40.9412 34.9094H42.6838C43.1287 34.9094 43.4624 34.7951 43.6848 34.5633C43.9073 34.3347 44.0185 34.0196 44.0185 33.6241V33.4758C44.0185 33.0648 43.9073 32.7466 43.6848 32.5241C43.4624 32.3017 43.1287 32.1905 42.6838 32.1905H40.9412V34.9094Z" fill="#004AAD"/>
<path d="M49.9567 35.651C49.9567 33.4264 50.5685 31.7394 51.7982 30.5839C53.0248 29.4314 54.7705 28.8536 57.0383 28.8536C59.303 28.8536 61.0549 29.4345 62.2908 30.5962C63.5266 31.7518 64.1446 33.4356 64.1446 35.651C64.1446 37.134 63.8665 38.3822 63.3165 39.3957C62.7635 40.4029 61.9571 41.1691 60.8942 41.6944L63.8974 44.7346H58.8797L56.8529 42.4606C54.6345 42.4174 52.929 41.8242 51.7364 40.6686C50.5499 39.5162 49.9567 37.8446 49.9567 35.651ZM59.8314 35.0454C59.8314 34.1154 59.5904 33.3769 59.1146 32.8332C58.6357 32.2832 57.9436 32.0051 57.0383 32.0051C56.1299 32.0051 55.444 32.2832 54.9744 32.8332C54.5047 33.3769 54.2699 34.1154 54.2699 35.0454V36.2689C54.2699 37.202 54.5047 37.9373 54.9744 38.4811C55.444 39.0249 56.1299 39.2968 57.0383 39.2968C57.9436 39.2968 58.6357 39.0249 59.1146 38.4811C59.5904 37.9373 59.8314 37.202 59.8314 36.2689V35.0454Z" fill="#004AAD"/>
</svg>
