<svg width="96" height="16" viewBox="0 0 96 16" fill="none" xmlns="http://www.w3.org/2000/svg">
<path d="M6.95816 1.10019C7.27942 0.111461 8.6782 0.111462 8.99945 1.10019L10.1473 4.63285C10.291 5.07502 10.703 5.37439 11.1679 5.37439H14.8824C15.922 5.37439 16.3542 6.70471 15.5132 7.31577L12.5081 9.49908C12.132 9.77235 11.9746 10.2567 12.1183 10.6989L13.2661 14.2316C13.5874 15.2203 12.4557 16.0425 11.6147 15.4314L8.6096 13.2481C8.23347 12.9748 7.72415 12.9748 7.34801 13.2481L4.34295 15.4314C3.5019 16.0425 2.37026 15.2203 2.69151 14.2316L3.83935 10.6989C3.98302 10.2567 3.82563 9.77235 3.44949 9.49908L0.444434 7.31577C-0.396625 6.70471 0.0356224 5.37439 1.07523 5.37439H4.78969C5.25461 5.37439 5.66666 5.07502 5.81033 4.63285L6.95816 1.10019Z" fill="#F59E0B"/>
<path d="M26.9157 1.10019C27.2369 0.111461 28.6357 0.111462 28.957 1.10019L30.1048 4.63285C30.2485 5.07502 30.6605 5.37439 31.1255 5.37439H34.8399C35.8795 5.37439 36.3118 6.70471 35.4707 7.31577L32.4656 9.49908C32.0895 9.77235 31.9321 10.2567 32.0758 10.6989L33.2236 14.2316C33.5449 15.2203 32.4132 16.0425 31.5722 15.4314L28.5671 13.2481C28.191 12.9748 27.6817 12.9748 27.3055 13.2481L24.3005 15.4314C23.4594 16.0425 22.3278 15.2203 22.649 14.2316L23.7969 10.6989C23.9405 10.2567 23.7831 9.77235 23.407 9.49908L20.402 7.31577C19.5609 6.70471 19.9931 5.37439 21.0327 5.37439H24.7472C25.2121 5.37439 25.6242 5.07502 25.7679 4.63285L26.9157 1.10019Z" fill="#F59E0B"/>
<path d="M46.8732 1.10019C47.1945 0.111461 48.5932 0.111462 48.9145 1.10019L50.0623 4.63285C50.206 5.07502 50.618 5.37439 51.083 5.37439H54.7974C55.837 5.37439 56.2693 6.70471 55.4282 7.31577L52.4232 9.49908C52.047 9.77235 51.8896 10.2567 52.0333 10.6989L53.1811 14.2316C53.5024 15.2203 52.3708 16.0425 51.5297 15.4314L48.5246 13.2481C48.1485 12.9748 47.6392 12.9748 47.2631 13.2481L44.258 15.4314C43.4169 16.0425 42.2853 15.2203 42.6066 14.2316L43.7544 10.6989C43.8981 10.2567 43.7407 9.77235 43.3645 9.49908L40.3595 7.31577C39.5184 6.70471 39.9507 5.37439 40.9903 5.37439H44.7047C45.1697 5.37439 45.5817 5.07502 45.7254 4.63285L46.8732 1.10019Z" fill="#F59E0B"/>
<path d="M66.8307 1.10019C67.152 0.111461 68.5508 0.111462 68.872 1.10019L70.0198 4.63285C70.1635 5.07502 70.5756 5.37439 71.0405 5.37439H74.7549C75.7946 5.37439 76.2268 6.70471 75.3857 7.31577L72.3807 9.49908C72.0045 9.77235 71.8472 10.2567 71.9908 10.6989L73.1387 14.2316C73.4599 15.2203 72.3283 16.0425 71.4872 15.4314L68.4822 13.2481C68.106 12.9748 67.5967 12.9748 67.2206 13.2481L64.2155 15.4314C63.3745 16.0425 62.2428 15.2203 62.5641 14.2316L63.7119 10.6989C63.8556 10.2567 63.6982 9.77235 63.3221 9.49908L60.317 7.31577C59.4759 6.70471 59.9082 5.37439 60.9478 5.37439H64.6622C65.1272 5.37439 65.5392 5.07502 65.6829 4.63285L66.8307 1.10019Z" fill="#F59E0B"/>
<path d="M86.7882 1.10019C87.1095 0.111461 88.5083 0.111462 88.8295 1.10019L89.9774 4.63285C90.121 5.07502 90.5331 5.37439 90.998 5.37439H94.7125C95.7521 5.37439 96.1843 6.70471 95.3433 7.31577L92.3382 9.49908C91.9621 9.77235 91.8047 10.2567 91.9483 10.6989L93.0962 14.2316C93.4174 15.2203 92.2858 16.0425 91.4447 15.4314L88.4397 13.2481C88.0635 12.9748 87.5542 12.9748 87.1781 13.2481L84.173 15.4314C83.332 16.0425 82.2003 15.2203 82.5216 14.2316L83.6694 10.6989C83.8131 10.2567 83.6557 9.77235 83.2796 9.49908L80.2745 7.31577C79.4335 6.70471 79.8657 5.37439 80.9053 5.37439H84.6198C85.0847 5.37439 85.4967 5.07502 85.6404 4.63285L86.7882 1.10019Z" fill="#F59E0B"/>
</svg>
