<svg width="25" height="24" viewBox="0 0 25 24" fill="none" xmlns="http://www.w3.org/2000/svg">
<path d="M20.5 10.999H22.5C22.5 5.869 18.627 2 13.49 2V4C17.552 4 20.5 6.943 20.5 10.999Z" fill="white"/>
<path d="M13.5 7.99999C15.603 7.99999 16.5 8.89699 16.5 11H18.5C18.5 7.77499 16.725 5.99999 13.5 5.99999V7.99999ZM16.922 13.443C16.7299 13.2683 16.4774 13.1752 16.2178 13.1832C15.9583 13.1912 15.712 13.2998 15.531 13.486L13.138 15.947C12.562 15.837 11.404 15.476 10.212 14.287C9.02004 13.094 8.65904 11.933 8.55204 11.361L11.011 8.96699C11.1975 8.78612 11.3062 8.53982 11.3142 8.2802C11.3222 8.02059 11.2289 7.76804 11.054 7.57599L7.35904 3.51299C7.18408 3.32035 6.94092 3.2035 6.68119 3.18725C6.42146 3.17101 6.16564 3.25665 5.96804 3.42599L3.79804 5.28699C3.62515 5.46051 3.52196 5.69145 3.50804 5.93599C3.49304 6.18599 3.20704 12.108 7.79904 16.702C11.805 20.707 16.823 21 18.205 21C18.407 21 18.531 20.994 18.564 20.992C18.8086 20.9783 19.0394 20.8747 19.212 20.701L21.072 18.53C21.2415 18.3325 21.3273 18.0768 21.3113 17.817C21.2952 17.5573 21.1785 17.3141 20.986 17.139L16.922 13.443Z" fill="white"/>
</svg>
