<svg width="25" height="24" viewBox="0 0 25 24" fill="none" xmlns="http://www.w3.org/2000/svg">
<path d="M12.5 1.5C10.3128 1.50258 8.21584 2.3726 6.66923 3.91922C5.12261 5.46584 4.25259 7.56276 4.25001 9.75C4.24739 11.5374 4.83124 13.2763 5.91201 14.7C5.91201 14.7 6.13701 14.9963 6.17376 15.039L12.5 22.5L18.8293 15.0353C18.8623 14.9955 19.088 14.7 19.088 14.7L19.0888 14.6978C20.169 13.2747 20.7526 11.5366 20.75 9.75C20.7474 7.56276 19.8774 5.46584 18.3308 3.91922C16.7842 2.3726 14.6873 1.50258 12.5 1.5ZM12.5 12.75C11.9067 12.75 11.3266 12.5741 10.8333 12.2444C10.34 11.9148 9.95543 11.4462 9.72837 10.8981C9.50131 10.3499 9.4419 9.74667 9.55765 9.16473C9.67341 8.58279 9.95913 8.04824 10.3787 7.62868C10.7982 7.20912 11.3328 6.9234 11.9147 6.80764C12.4967 6.69189 13.0999 6.7513 13.6481 6.97836C14.1962 7.20542 14.6648 7.58994 14.9944 8.08329C15.3241 8.57664 15.5 9.15666 15.5 9.75C15.499 10.5453 15.1826 11.3078 14.6202 11.8702C14.0578 12.4326 13.2954 12.749 12.5 12.75Z" fill="white"/>
</svg>
