<svg width="31" height="30" viewBox="0 0 31 30" fill="none" xmlns="http://www.w3.org/2000/svg">
<circle cx="15.5" cy="15" r="15" fill="#F6AF03"/>
<path d="M21.1985 10.8295C20.2258 10.4391 19.1995 10.1605 18.1451 10.0006C18.1355 9.99916 18.1257 10.0004 18.117 10.004C18.1082 10.0077 18.101 10.0137 18.0963 10.0211C17.9641 10.2261 17.8179 10.4942 17.7157 10.7041C16.5791 10.5532 15.423 10.5532 14.2863 10.7041C14.1724 10.4702 14.0434 10.2422 13.9001 10.0211C13.8953 10.0137 13.8881 10.0079 13.8794 10.0042C13.8707 10.0006 13.8609 9.99928 13.8514 10.0006C12.7967 10.1596 11.7701 10.4384 10.7979 10.8295C10.7896 10.8323 10.7827 10.8375 10.7783 10.8443C8.8339 13.3853 8.30047 15.864 8.56203 18.3115C8.56297 18.323 8.57141 18.3344 8.58172 18.3418C9.71395 19.0754 10.9804 19.6354 12.327 19.9981C12.3365 20.0007 12.3467 20.0006 12.3562 19.9978C12.3656 19.995 12.3738 19.9897 12.3795 19.9825C12.6682 19.6381 12.9251 19.2749 13.1464 18.8928C13.151 18.885 13.1525 18.876 13.1509 18.8673C13.1492 18.8586 13.1443 18.8505 13.137 18.8444C13.1321 18.8404 13.1264 18.8374 13.1201 18.8354C12.7162 18.6997 12.325 18.5365 11.9501 18.3476C11.9397 18.3424 11.9319 18.3339 11.9284 18.3238C11.9249 18.3137 11.926 18.3028 11.9314 18.2934C11.9346 18.2873 11.9394 18.282 11.9454 18.2779C12.0242 18.2262 12.1029 18.1721 12.1779 18.118C12.1846 18.1133 12.1925 18.1103 12.2009 18.1093C12.2094 18.1083 12.2179 18.1093 12.2257 18.1122C14.681 19.0929 17.3388 19.0929 19.7641 18.1122C19.7722 18.1092 19.7811 18.1081 19.7899 18.1091C19.7986 18.1101 19.8069 18.1132 19.8138 18.118C19.8888 18.1721 19.9675 18.2262 20.0463 18.2779C20.0527 18.2819 20.0578 18.2873 20.0612 18.2936C20.0646 18.2998 20.0662 18.3067 20.0658 18.3136C20.0655 18.3205 20.0631 18.3272 20.0591 18.3331C20.055 18.3391 20.0493 18.344 20.0425 18.3476C19.6685 18.5383 19.2768 18.7012 18.8716 18.8346C18.8651 18.8367 18.8593 18.8399 18.8544 18.8442C18.8496 18.8484 18.8458 18.8536 18.8435 18.8592C18.8413 18.8647 18.8405 18.8705 18.8409 18.8763C18.8414 18.882 18.8432 18.8877 18.8463 18.8928C19.0713 19.2741 19.3291 19.6381 19.6122 19.9825C19.6179 19.9897 19.6261 19.995 19.6356 19.9978C19.645 20.0006 19.6552 20.0007 19.6647 19.9981C21.0136 19.6365 22.2821 19.0764 23.4156 18.3418C23.4213 18.3384 23.426 18.3339 23.4294 18.3286C23.4328 18.3234 23.4349 18.3175 23.4353 18.3115C23.7484 15.4819 22.9113 13.0237 21.2172 10.8451C21.2155 10.8415 21.213 10.8383 21.2097 10.8356C21.2065 10.8329 21.2027 10.8308 21.1985 10.8295ZM13.5129 16.8208C12.7732 16.8208 12.1648 16.2272 12.1648 15.4991C12.1648 14.7702 12.762 14.1765 13.5129 14.1765C14.2695 14.1765 14.8723 14.7751 14.861 15.4991C14.861 16.2272 14.2638 16.8208 13.5129 16.8208ZM18.4966 16.8208C17.7579 16.8208 17.1485 16.2272 17.1485 15.4991C17.1485 14.7702 17.7457 14.1765 18.4966 14.1765C19.2532 14.1765 19.8569 14.7751 19.8447 15.4991C19.8447 16.2272 19.2532 16.8208 18.4966 16.8208Z" fill="white"/>
</svg>
